<svg width="474px" height="119px" viewBox="0 0 474 119" version="1.1" xmlns="http://www.w3.org/2000/svg" xmlns:xlink="http://www.w3.org/1999/xlink">
    <g id="Page-1" stroke="none" stroke-width="1" fill="none" fill-rule="evenodd">
        <g id="Group-2" transform="translate(0.173700, -0.000000)" fill="#FFFFFE">
            <path d="M128.256,0 L0,0 L0,19.711 L121.851,19.711 L121.851,19.729 C125.378,19.729 128.197,22.559 128.197,26.068 L128.197,92.25 L128.18,92.309 C128.162,95.807 125.314,98.611 121.827,98.611 L26.068,98.611 C22.56,98.611 19.693,95.783 19.693,92.25 L19.693,65.514 C19.693,62.004 22.56,59.148 26.068,59.148 L108.45,59.148 L108.45,39.469 L19.652,39.469 C8.803,39.469 0,48.25 0,59.096 L0,98.672 C0,109.525 8.803,118.318 19.652,118.318 L128.256,118.318 C139.121,118.318 147.907,109.525 147.907,98.672 L147.907,19.658 C147.907,8.805 139.121,0 128.256,0" id="Fill-9"></path>
            <path d="M220.7111,27.9434 L236.0781,73.8984 C237.8981,79.5064 239.1921,80.8064 242.3961,80.8064 L245.5151,80.8064 L245.5151,88.8944 L211.9661,88.8944 L211.9661,80.8064 L214.7201,80.8064 C217.4791,80.8064 219.7711,80.4394 219.7711,79.4414 C219.7711,78.4964 219.6821,77.4864 219.3101,76.1014 L217.3901,69.4984 L198.6371,69.4984 L197.5141,73.1774 C196.5101,76.3864 196.1431,77.7504 196.1431,79.0394 C196.1431,80.5214 199.3691,80.8064 201.8691,80.8064 L204.5091,80.8064 L204.5091,88.8944 L177.4841,88.8944 L177.4841,80.8064 L180.6151,80.8064 C183.8301,80.8064 185.1011,79.5064 186.9621,73.8984 L202.3171,27.9434 L220.7111,27.9434 Z M201.2831,61.4144 L214.6191,61.4144 L208.0131,41.6214 L207.8301,41.6214 L201.2831,61.4144 Z" id="Fill-11"></path>
            <path d="M250.8536,39.2539 C250.8536,36.6539 250.2086,35.2949 247.5446,35.2949 L243.3206,35.2949 L243.3206,27.9399 L266.1266,27.9399 L266.1266,50.8219 C269.5246,46.9589 273.8486,44.4769 277.9676,44.4769 C291.7646,44.4769 296.9046,55.2539 296.9046,67.3649 C296.9046,79.5079 291.7646,90.2599 277.9676,90.2599 C272.1776,90.2599 267.0256,88.2419 263.8176,83.1839 L261.1646,88.9019 L250.8536,88.9019 L250.8536,39.2539 Z M266.1266,67.3649 C266.1266,76.7599 268.2366,82.3559 273.3756,82.3559 C278.5516,82.3559 280.6446,76.7599 280.6446,67.3649 C280.6446,57.9959 278.5516,52.3929 273.3756,52.3929 C268.2366,52.3929 266.1266,57.9959 266.1266,67.3649 L266.1266,67.3649 Z" id="Fill-13"></path>
            <path d="M302.4347,39.2539 C302.4347,36.6539 301.7837,35.2949 299.1437,35.2949 L294.9077,35.2949 L294.9077,27.9399 L317.7017,27.9399 L317.7017,50.8219 C321.1107,46.9589 325.4247,44.4769 329.5667,44.4769 C343.3567,44.4769 348.5137,55.2539 348.5137,67.3649 C348.5137,79.5079 343.3567,90.2599 329.5667,90.2599 C323.7697,90.2599 318.6177,88.2419 315.4097,83.1839 L312.7327,88.9019 L302.4347,88.9019 L302.4347,39.2539 Z M317.7017,67.3649 C317.7017,76.7599 319.8347,82.3559 324.9747,82.3559 C330.1267,82.3559 332.2307,76.7599 332.2307,67.3649 C332.2307,57.9959 330.1267,52.3929 324.9747,52.3929 C319.8347,52.3929 317.7017,57.9959 317.7017,67.3649 L317.7017,67.3649 Z" id="Fill-15"></path>
            <path d="M400.3644,67.3691 C400.3644,82.0881 390.3384,90.2581 376.6414,90.2581 C362.9224,90.2581 352.9144,82.0881 352.9144,67.3691 C352.9144,52.6621 362.9224,44.4801 376.6414,44.4801 C390.3384,44.4801 400.3644,52.6621 400.3644,67.3691 M369.1974,67.3691 C369.1974,78.2191 371.1244,82.9081 376.6414,82.9081 C382.1544,82.9081 384.0744,78.2191 384.0744,67.3691 C384.0744,56.5211 382.1544,51.8341 376.6414,51.8341 C371.1244,51.8341 369.1974,56.5211 369.1974,67.3691" id="Fill-17"></path>
            <path d="M465.9161,68.1133 L465.9161,75.2813 C465.9161,79.5113 465.0061,82.0093 461.5081,82.0093 C459.3991,82.0093 458.3951,80.4333 458.3951,78.4963 L458.3951,53.2183 L469.6801,53.2183 L469.6801,45.8553 L458.3951,45.8553 L458.3951,28.7813 L449.2711,28.7813 C448.5261,36.3963 446.1471,45.8553 436.9581,45.8553 L422.6191,45.8553 L422.6191,28.7813 L413.5201,28.7813 C412.7821,36.3963 410.3891,45.8553 401.2011,45.8553 L401.2011,53.2183 L407.3631,53.2183 L407.3631,76.2913 C407.3631,85.6743 412.5991,90.2583 422.0521,90.2583 C433.1131,90.2583 437.4961,85.3083 437.4961,76.2913 L437.4961,68.1133 L430.1641,68.1133 L430.1641,75.2813 C430.1641,79.5113 429.2361,82.0093 425.7571,82.0093 C423.6231,82.0093 422.6191,80.4333 422.6191,78.4963 L422.6191,53.2183 L443.1451,53.2183 L443.1451,76.2913 C443.1451,85.6743 448.3621,90.2583 457.8331,90.2583 C468.8591,90.2583 473.2841,85.3083 473.2841,76.2913 L473.2841,68.1133 L465.9161,68.1133 Z" id="Fill-19"></path>
            <path d="M128.256,0 L0,0 L0,19.711 L121.851,19.711 L121.851,19.729 C125.378,19.729 128.197,22.559 128.197,26.068 L128.197,92.25 L128.18,92.309 C128.162,95.807 125.314,98.611 121.827,98.611 L26.068,98.611 C22.56,98.611 19.693,95.783 19.693,92.25 L19.693,65.514 C19.693,62.004 22.56,59.148 26.068,59.148 L108.45,59.148 L108.45,39.469 L19.652,39.469 C8.803,39.469 0,48.25 0,59.096 L0,98.672 C0,109.525 8.803,118.318 19.652,118.318 L128.256,118.318 C139.121,118.318 147.907,109.525 147.907,98.672 L147.907,19.658 C147.907,8.805 139.121,0 128.256,0" id="Fill-21"></path>
            <path d="M220.7111,27.9434 L236.0781,73.8984 C237.8981,79.5064 239.1921,80.8064 242.3961,80.8064 L245.5151,80.8064 L245.5151,88.8944 L211.9661,88.8944 L211.9661,80.8064 L214.7201,80.8064 C217.4791,80.8064 219.7711,80.4394 219.7711,79.4414 C219.7711,78.4964 219.6821,77.4864 219.3101,76.1014 L217.3901,69.4984 L198.6371,69.4984 L197.5141,73.1774 C196.5101,76.3864 196.1431,77.7504 196.1431,79.0394 C196.1431,80.5214 199.3691,80.8064 201.8691,80.8064 L204.5091,80.8064 L204.5091,88.8944 L177.4841,88.8944 L177.4841,80.8064 L180.6151,80.8064 C183.8301,80.8064 185.1011,79.5064 186.9621,73.8984 L202.3171,27.9434 L220.7111,27.9434 Z M201.2831,61.4144 L214.6191,61.4144 L208.0131,41.6214 L207.8301,41.6214 L201.2831,61.4144 Z" id="Fill-23"></path>
            <path d="M250.8536,39.2539 C250.8536,36.6539 250.2086,35.2949 247.5446,35.2949 L243.3206,35.2949 L243.3206,27.9399 L266.1266,27.9399 L266.1266,50.8219 C269.5246,46.9589 273.8486,44.4769 277.9676,44.4769 C291.7646,44.4769 296.9046,55.2539 296.9046,67.3649 C296.9046,79.5079 291.7646,90.2599 277.9676,90.2599 C272.1776,90.2599 267.0256,88.2419 263.8176,83.1839 L261.1646,88.9019 L250.8536,88.9019 L250.8536,39.2539 Z M266.1266,67.3649 C266.1266,76.7599 268.2366,82.3559 273.3756,82.3559 C278.5516,82.3559 280.6446,76.7599 280.6446,67.3649 C280.6446,57.9959 278.5516,52.3929 273.3756,52.3929 C268.2366,52.3929 266.1266,57.9959 266.1266,67.3649 L266.1266,67.3649 Z" id="Fill-25"></path>
            <path d="M302.4347,39.2539 C302.4347,36.6539 301.7837,35.2949 299.1437,35.2949 L294.9077,35.2949 L294.9077,27.9399 L317.7017,27.9399 L317.7017,50.8219 C321.1107,46.9589 325.4247,44.4769 329.5667,44.4769 C343.3567,44.4769 348.5137,55.2539 348.5137,67.3649 C348.5137,79.5079 343.3567,90.2599 329.5667,90.2599 C323.7697,90.2599 318.6177,88.2419 315.4097,83.1839 L312.7327,88.9019 L302.4347,88.9019 L302.4347,39.2539 Z M317.7017,67.3649 C317.7017,76.7599 319.8347,82.3559 324.9747,82.3559 C330.1267,82.3559 332.2307,76.7599 332.2307,67.3649 C332.2307,57.9959 330.1267,52.3929 324.9747,52.3929 C319.8347,52.3929 317.7017,57.9959 317.7017,67.3649 L317.7017,67.3649 Z" id="Fill-27"></path>
            <path d="M400.3644,67.3691 C400.3644,82.0881 390.3384,90.2581 376.6414,90.2581 C362.9224,90.2581 352.9144,82.0881 352.9144,67.3691 C352.9144,52.6621 362.9224,44.4801 376.6414,44.4801 C390.3384,44.4801 400.3644,52.6621 400.3644,67.3691 M369.1974,67.3691 C369.1974,78.2191 371.1244,82.9081 376.6414,82.9081 C382.1544,82.9081 384.0744,78.2191 384.0744,67.3691 C384.0744,56.5211 382.1544,51.8341 376.6414,51.8341 C371.1244,51.8341 369.1974,56.5211 369.1974,67.3691" id="Fill-29"></path>
            <path d="M465.9161,68.1133 L465.9161,75.2813 C465.9161,79.5113 465.0061,82.0093 461.5081,82.0093 C459.3991,82.0093 458.3951,80.4333 458.3951,78.4963 L458.3951,53.2183 L469.6801,53.2183 L469.6801,45.8553 L458.3951,45.8553 L458.3951,28.7813 L449.2711,28.7813 C448.5261,36.3963 446.1471,45.8553 436.9581,45.8553 L422.6191,45.8553 L422.6191,28.7813 L413.5201,28.7813 C412.7821,36.3963 410.3891,45.8553 401.2011,45.8553 L401.2011,53.2183 L407.3631,53.2183 L407.3631,76.2913 C407.3631,85.6743 412.5991,90.2583 422.0521,90.2583 C433.1131,90.2583 437.4961,85.3083 437.4961,76.2913 L437.4961,68.1133 L430.1641,68.1133 L430.1641,75.2813 C430.1641,79.5113 429.2361,82.0093 425.7571,82.0093 C423.6231,82.0093 422.6191,80.4333 422.6191,78.4963 L422.6191,53.2183 L443.1451,53.2183 L443.1451,76.2913 C443.1451,85.6743 448.3621,90.2583 457.8331,90.2583 C468.8591,90.2583 473.2841,85.3083 473.2841,76.2913 L473.2841,68.1133 L465.9161,68.1133 Z" id="Fill-31"></path>
        </g>
    </g>
</svg>