
<svg width="150px" height="194px" viewBox="0 0 150 194" version="1.1" xmlns="http://www.w3.org/2000/svg" xmlns:xlink="http://www.w3.org/1999/xlink">
    <g id="Page-1" stroke="none" stroke-width="1" fill="none" fill-rule="evenodd">
        <g id="Desktop-HD" transform="translate(-328.000000, -222.000000)" fill="#71C3BD">
            <path d="M370.5,222.000023 C384.852865,222.000023 391.661133,224.403564 395.212158,226.179932 C398.763184,227.956299 400.392453,231.11101 402.162819,235.196267 C408.025391,248.724609 411.849121,264.034007 411.849121,286.094727 C411.849121,308.815918 405.801432,317.420872 406.937012,324.940918 C410.415039,347.973145 411.849121,361.22998 412.669636,384.27002 C412.916174,391.192807 409.651297,404.901921 401.253418,409.304688 C381.701937,419.554966 345.086746,414.573121 337.240234,408.256836 C329.902415,402.350038 328.687012,392.36377 328.687012,384.27002 C328.453433,378.009238 328.888332,370.423573 329.58994,362.764667 L329.71644,361.41259 L329.847986,360.060521 L329.913372,359.40607 L330.047128,358.098946 C331.154798,347.436603 332.623263,337.127067 333.35916,330.576518 L333.445535,329.793429 C333.583142,328.520364 333.688379,327.409648 333.751953,326.490234 C334.408203,316.999512 328.306957,302.946085 328,286.094727 C327.935911,282.576348 328.761049,273.990546 330.045324,265.230171 L330.215407,264.086926 C330.934639,259.322629 331.783962,254.569604 332.694336,250.613281 C335.352627,239.060819 339.335937,229.453857 343.391113,227.14502 C347.446289,224.836182 356.147135,222.000023 370.5,222.000023 Z M437.155379,225 C451.053005,225 457.645332,227.314094 461.083728,229.024354 C464.522123,230.734614 466.099717,233.771923 467.813931,237.705148 C473.490556,250.730035 477.193007,265.469696 477.193007,286.709429 C477.193007,308.585055 471.337136,316.869777 472.436698,324.109965 C475.804411,346.285051 477.193007,359.048536 477.987497,381.231143 C478.226215,387.8963 475.064893,401.095232 466.933374,405.33415 C451.608366,413.322996 425.456225,411.701744 412.018308,407.568276 C412.455606,405.937349 412.878913,404.210795 413.287375,402.395427 C424.769079,406.760437 450.053216,408.544658 463.796176,401.380525 C470.867446,397.69431 472.850828,385.542217 472.643235,379.746115 C471.952337,360.455844 470.11089,343.075578 467.816192,323.313302 C466.548992,312.399997 471.952337,309.812647 471.952337,290.789332 C471.952337,272.318997 468.73264,251.852333 463.796176,240.525729 C462.622322,237.832348 461.522138,235.62207 459.647487,234.077961 L459.838259,234.268561 C461.167941,235.638291 462.081683,237.416672 462.999293,239.511367 C465.936963,248.136783 467.048053,259.566115 466.333694,273.798925 C468.079864,273.798925 469.184332,273.798925 470.572845,274.306703 C470.742637,276.134962 470.884924,277.973376 471.000027,279.813476 C460.996611,277.436654 449.859225,276.073745 438.10852,275.985525 L436.890764,275.980957 L435.566572,275.986359 C429.347423,276.037138 423.300625,276.444963 417.503483,277.170904 C417.296858,275.270994 417.077824,273.411115 416.847688,271.59313 C421.818195,270.961533 427.369141,270.629756 433.498602,270.597513 L434.493299,270.59491 L434.492472,229.516158 C428.824907,229.685939 424.322905,230.392659 420.881669,231.288046 L420.489515,231.392023 L420.231158,232.010725 C417.051194,239.752768 415.286943,248.027574 414.351291,255.71294 C413.480355,251.201593 412.525818,247.130643 411.501452,243.566282 L411.293294,242.852966 C411.936352,239.76351 412.697867,236.90957 413.577841,234.291145 C413.129533,234.65816 412.683134,235.126274 412.241526,235.684929 L411.903641,236.187032 C411.282896,237.131693 410.689728,238.138609 410.124139,239.207778 C409.341736,236.954459 408.524066,234.983112 407.677703,233.318939 C408.730677,231.730214 409.815814,230.570887 410.906319,229.953527 C414.832875,227.730612 423.257752,225 437.155379,225 Z M370.5,275 L369.119175,275.00556 C356.587471,275.106543 344.726864,276.579605 334.119016,279.135658 C333.74998,283.835 333.5322,287.765808 333.518235,289.770657 L333.518287,290.159474 L333.52055,290.332331 C333.787484,304.986481 339.093203,317.207515 338.52252,325.460765 C338.222077,329.805784 336.686041,340.53286 335.38584,352.054457 L335.252238,353.248951 L335.252238,353.248951 L335.11847,354.468087 C335.030081,355.282003 334.943356,356.097916 334.858801,356.913897 L334.723392,358.239622 C333.878923,366.632381 333.29353,374.921859 333.52055,381.006836 C333.52055,388.045261 334.464288,396.897461 340.68457,403.292969 C346.904853,409.688477 381.011247,414.112012 398.013457,405.198242 C405.316357,401.369542 407.364707,388.747731 407.150315,382.727589 C406.436785,362.691686 404.535019,344.639615 402.165154,324.11346 C400.856445,312.77832 406.436785,310.090961 406.436785,290.332331 C406.436785,287.07911 406.341165,283.766263 406.157494,280.450195 L406.066515,278.943023 L405.019905,278.702399 C394.850252,276.403409 383.588864,275.089447 371.728997,275.004404 L370.5,275 Z M397.729628,237.477979 C400.789018,246.35035 401.946877,258.1105 401.202148,272.754395 C403.022981,272.754395 404.174679,272.754395 405.622555,273.27695 L405.628515,273.337023 L405.584128,272.853453 C404.286632,259.269351 401.585156,246.367849 398.013457,238.125873 C397.918521,237.906801 397.824051,237.690805 397.729628,237.477979 Z M346.416469,231.442963 L346.220313,231.593474 L346.220313,231.593474 L346.200723,231.609209 L346.200723,231.609209 L346.298687,231.53234 C344.106917,234.207955 342.197023,237.511553 340.569005,241.443134 L340.305515,242.090023 L340.235174,242.288332 C339.258024,245.072272 338.367388,248.209948 337.602803,251.5327 C336.4372,256.598205 335.386683,265.185402 334.642876,273.077444 L334.618515,273.337023 L335.057695,273.231491 C337.64024,272.605564 339.283401,272.153809 341.077637,272.153809 C341.077637,255.356162 342.802462,241.942943 346.252113,231.914151 L346.416469,231.442963 Z M440.24831,229.524283 L440.247215,270.59491 C448.245008,270.59491 455.277572,271.094673 461.344906,272.094198 C461.344906,261.140575 460.143356,245.434963 454.310789,231.532388 C451.286962,230.585166 446.863445,229.730427 440.24831,229.524283 Z M353.502441,228.865723 C347.275879,243.269043 346,259.624512 346,271 C352.063205,270.014214 359.050793,269.500784 366.962762,269.45971 L368,269.457031 L368,227 C363.955078,226.766837 359.122559,227.388745 353.502441,228.865723 Z M374,227 L374,269.457031 C382.339844,269.457031 389.673177,269.971354 396,271 C396,259.6274 394.724769,243.277348 388.5023,228.876694 L388.79471,228.973179 L388.574351,228.899747 L388.574351,228.899747 L388.357515,228.829023 L387.826925,228.69259 C382.4921,227.34036 377.883125,226.776164 374,227 Z" id="Combined-Shape"></path>
        </g>
    </g>
</svg>