
<svg width="156px" height="169px" viewBox="0 0 156 169" version="1.1" xmlns="http://www.w3.org/2000/svg" xmlns:xlink="http://www.w3.org/1999/xlink">
    <g id="Page-12" stroke="none" stroke-width="1" fill="none" fill-rule="evenodd">
        <g id="nutripronto-mobile" transform="translate(-496.000000, -958.000000)" fill="#71C3BD">
            <g id="Group-3" transform="translate(495.999975, 958.506800)">
                <path d="M122.913825,3.8265 C122.901825,3.8265 122.890825,3.8265 122.878825,3.8265 L123.182825,3.8265 C123.171825,3.8265 123.159825,3.8265 123.148825,3.8265 L122.913825,3.8265 Z" id="Fill-534"></path>
                <path d="M118.353125,44.0208 C119.974125,44.0208 121.686125,44.1748 123.493125,44.5188 C127.519125,45.2858 131.269125,46.6958 134.666125,48.6188 C138.064125,50.5408 141.108125,52.9748 143.745125,55.7888 C149.019125,61.4188 152.668125,68.5618 154.298125,76.2828 C155.126125,80.2138 155.500125,84.1898 155.500125,88.1548 C155.500125,94.9598 154.402125,101.7318 152.603125,108.2458 C150.803125,114.7598 148.301125,121.0178 145.461125,126.8008 C144.276125,129.2108 142.686125,131.8578 140.909125,134.5178 C139.133125,137.1738 137.173125,139.8318 135.255125,142.2108 C133.976125,143.7968 132.716125,145.2588 131.531125,146.5188 C130.297125,147.8288 128.799125,149.1318 127.104125,150.2818 C125.408125,151.4298 123.518125,152.4268 121.473125,153.0658 C120.111125,153.4888 118.675125,153.7528 117.193125,153.7528 C116.464125,153.7528 115.726125,153.6878 114.988125,153.5468 C113.714125,153.3008 112.492125,152.9458 111.299125,152.5438 C110.106125,152.1418 108.941125,151.6938 107.782125,151.2478 C105.464125,150.3558 103.169125,149.4818 100.765125,148.9348 C99.1611254,148.5698 97.5111254,148.3458 95.7501254,148.3458 C93.1111254,148.3458 90.7111254,148.8488 88.3621254,149.5798 C86.0151254,150.3078 83.7371254,151.2708 81.3851254,152.1278 C79.8161254,152.6968 78.2101254,153.2188 76.5121254,153.5468 C75.7741254,153.6878 75.0351254,153.7528 74.3061254,153.7528 C73.1951254,153.7528 72.1091254,153.6038 71.0611254,153.3518 C70.0141254,153.0988 69.0031254,152.7428 68.0351254,152.3148 C66.0991254,151.4578 64.3261254,150.3208 62.7691254,149.0858 C61.7311254,148.2618 60.7911254,147.3928 59.9691254,146.5188 C59.3317736,145.840919 58.6722954,145.104505 57.9998725,144.321787 L57.9986577,134.884547 C58.9271639,136.150334 59.874279,137.382285 60.8041254,138.5348 C62.0051254,140.0248 63.1791254,141.3838 64.2351254,142.5068 C65.1661254,143.4978 66.3691254,144.5448 67.6821254,145.4338 C68.9941254,146.3258 70.4191254,147.0558 71.7671254,147.4738 C72.6651254,147.7538 73.5231254,147.8958 74.3011254,147.8958 L74.3011254,147.8958 C74.6911254,147.8958 75.0561254,147.8618 75.4071254,147.7948 C76.3241254,147.6188 77.2971254,147.3418 78.3311254,146.9938 C79.3651254,146.6458 80.4591254,146.2268 81.6171254,145.7818 C83.9341254,144.8928 86.5101254,143.8928 89.4341254,143.2248 C91.3811254,142.7808 93.4841254,142.4888 95.7501254,142.4888 L95.7501254,142.4888 C99.1501254,142.4888 102.180125,143.1468 104.877125,143.9868 C107.578125,144.8298 109.965125,145.8458 112.114125,146.6238 C113.547125,147.1448 114.870125,147.5608 116.093125,147.7948 C116.443125,147.8618 116.809125,147.8958 117.195125,147.8958 C117.780125,147.8958 118.408125,147.8168 119.066125,147.6578 C119.724125,147.4998 120.410125,147.2618 121.099125,146.9578 C122.478125,146.3498 123.867125,145.4718 125.089125,144.4998 C125.903125,143.8538 126.644125,143.1668 127.265125,142.5068 C128.850125,140.8228 130.695125,138.6088 132.512125,136.2108 C134.330125,133.8138 136.125125,131.2258 137.638125,128.7858 C138.646125,127.1588 139.528125,125.5968 140.204125,124.2188 C142.907125,118.7148 145.274125,112.7838 146.958125,106.6868 C148.643125,100.5888 149.644125,94.3268 149.643125,88.1548 C149.643125,84.5568 149.304125,80.9888 148.567125,77.4908 C147.508125,72.4638 145.455125,67.7228 142.594125,63.6418 C139.733125,59.5598 136.069125,56.1418 131.781125,53.7158 C128.922125,52.0978 125.784125,50.9178 122.396125,50.2718 C120.941125,49.9948 119.604125,49.8778 118.350125,49.8778 C117.069125,49.8778 115.873125,49.9998 114.725125,50.2108 C113.578125,50.4208 112.479125,50.7198 111.400125,51.0788 C109.572125,51.6848 107.804125,52.4678 105.983125,53.2468 C105.999125,53.2388 106.014125,53.2318 106.030125,53.2238 C107.482125,52.5118 108.082125,50.7578 107.370125,49.3058 C106.861125,48.2688 105.820125,47.6658 104.738125,47.6658 C104.305125,47.6658 103.866125,47.7618 103.451125,47.9658 C102.926125,48.2238 102.421125,48.4928 101.934125,48.7708 C101.920125,48.7158 101.907125,48.6618 101.893125,48.6078 C102.825125,48.2358 103.800125,47.8108 104.830125,47.3688 C107.006125,46.4368 109.432125,45.4218 112.236125,44.7528 C114.103125,44.3068 116.136125,44.0208 118.344125,44.0208 L118.344125,44.0208 Z M73.1601254,44.0208 C75.9671254,44.0208 78.4901254,44.4858 80.7501254,45.1478 C82.0641254,45.5318 83.2921254,45.9798 84.4491254,46.4428 C85.1041254,48.1768 85.7141254,49.9368 86.2151254,51.5918 C86.4471254,52.3568 86.6551254,53.0998 86.8351254,53.8038 C85.4411254,53.2298 84.0951254,52.6228 82.7441254,52.0708 C80.9451254,51.3338 79.1441254,50.6918 77.2201254,50.2978 C75.9371254,50.0338 74.5981254,49.8778 73.1491254,49.8778 C71.8951254,49.8778 70.5581254,49.9948 69.1031254,50.2718 C65.0701254,51.0408 61.3901254,52.5668 58.1151254,54.6878 C58.0764495,54.7128478 58.0378305,54.7379792 57.9992684,54.763194 L57.9991908,47.9864274 C61.0823212,46.3853064 64.4356651,45.1989717 68.0071254,44.5188 C69.8131254,44.1748 71.5261254,44.0208 73.1461254,44.0208 L73.1461254,44.0208 Z" id="Combined-Shape"></path>
                <path d="M103.451425,47.9659 C102.926425,48.2229 102.421425,48.4929 101.933425,48.7709 C102.283425,50.1929 102.546425,51.5959 102.694425,52.9639 C102.865425,54.5719 101.701425,56.0149 100.093425,56.1869 C99.9874254,56.1979 99.8824254,56.2039 99.7784254,56.2039 C98.3014254,56.2039 97.0314254,55.0889 96.8704254,53.5869 C96.8284254,53.1859 96.7704254,52.7679 96.6984254,52.3379 C96.1834254,52.7239 95.6854254,53.0999 95.1984254,53.4569 C94.4704254,53.9909 93.7684254,54.4849 93.0764254,54.9199 C93.0844254,54.9649 93.0924254,55.0099 93.1004254,55.0549 C93.2944254,56.1569 93.4154254,57.1929 93.4164254,58.1969 C93.4164254,58.4949 93.4054254,58.7909 93.3794254,59.0889 C93.2454254,60.6129 91.9674254,61.7609 90.4654254,61.7609 C90.3794254,61.7609 90.2934254,61.7569 90.2064254,61.7499 C88.5954254,61.6079 87.4034254,60.1879 87.5454254,58.5769 C87.5544254,58.4749 87.5604254,58.3469 87.5604254,58.1969 C87.5604254,57.8859 87.5344254,57.4819 87.4764254,57.0159 C87.1054254,57.0469 86.7204254,57.0669 86.3164254,57.0669 C84.9194254,57.0669 83.2864254,56.8329 81.3054254,56.2269 C81.0204254,56.1389 80.7304254,56.0969 80.4464254,56.0969 C79.1934254,56.0969 78.0344254,56.9079 77.6484254,58.1679 C77.1744254,59.7139 78.0434254,61.3519 79.5894254,61.8259 C82.0274254,62.5739 84.2534254,62.9239 86.3134254,62.9239 L86.3164254,62.9239 C87.4874254,62.9239 88.5994254,62.8109 89.6504254,62.6019 C91.4934254,62.2389 93.1394254,61.5829 94.6164254,60.7959 C95.7254254,60.2049 96.7444254,59.5429 97.7114254,58.8629 C99.1624254,57.8419 100.500425,56.7829 101.849425,55.8109 C103.184425,54.8469 104.524425,53.9669 105.983425,53.2469 C105.998425,53.2389 106.014425,53.2319 106.030425,53.2239 C107.482425,52.5119 108.081425,50.7569 107.369425,49.3059 C106.861425,48.2679 105.820425,47.6659 104.738425,47.6659 C104.305425,47.6659 103.866425,47.7619 103.451425,47.9659 Z" id="Fill-538"></path>
                <path d="M81.7814254,22.2342 C81.1474254,22.4622 80.5374254,22.7772 79.9734254,23.1842 C79.1284254,23.7932 78.3894254,24.6182 77.8794254,25.6152 C77.3654254,26.6102 77.0924254,27.7652 77.0953069,28.9602 C77.0953069,30.0062 77.2964254,31.0812 77.6794254,32.1622 C78.0634254,33.2452 78.6294254,34.3372 79.3794254,35.4512 C79.4884254,35.6122 79.6284254,35.8362 79.7854254,36.1062 C80.0824254,36.6132 80.4404254,37.2812 80.8294254,38.0582 C81.5104254,39.4202 82.2864254,41.1172 83.0584254,42.9562 C83.5304254,44.0782 84.0004254,45.2542 84.4494254,46.4422 C85.1044254,48.1772 85.7134254,49.9372 86.2144254,51.5922 C86.4464254,52.3572 86.6554254,53.0992 86.8354254,53.8032 C86.9824254,54.3812 87.1104254,54.9332 87.2144254,55.4502 C87.3304254,56.0202 87.4184254,56.5462 87.4764254,57.0112 C87.5344254,57.4822 87.5604254,57.8852 87.5604254,58.1972 C87.5604254,58.3472 87.5544254,58.4752 87.5454254,58.5762 C87.4034254,60.1872 88.5954254,61.6082 90.2064254,61.7502 C90.2934254,61.7572 90.3804254,61.7612 90.4654254,61.7612 C91.9674254,61.7612 93.2454254,60.6132 93.3794254,59.0892 C93.4054254,58.7912 93.4164254,58.4952 93.4164254,58.1972 C93.4154254,57.1932 93.2944254,56.1572 93.1004254,55.0542 C93.0924254,55.0102 93.0844254,54.9652 93.0764254,54.9202 C92.7324254,53.0322 92.1684254,50.9582 91.4824254,48.8122 C90.4284254,45.5212 89.0844254,42.0792 87.7824254,39.1132 C87.1314254,37.6312 86.4904254,36.2692 85.8954254,35.0992 C85.5984254,34.5142 85.3114254,33.9762 85.0374254,33.4902 C84.7614254,33.0032 84.5004254,32.5702 84.2354254,32.1772 C83.7174254,31.4092 83.3904254,30.7442 83.1994254,30.2052 C83.0084254,29.6652 82.9514254,29.2542 82.9514254,28.9602 C82.9534254,28.6592 83.0054254,28.4772 83.0654254,28.3392 C83.1114254,28.2362 83.1654254,28.1562 83.2364254,28.0792 C83.3404254,27.9642 83.4894254,27.8562 83.6924254,27.7732 C83.8924254,27.6902 84.1424254,27.6382 84.4034254,27.6382 C84.7124254,27.6382 85.0244254,27.7062 85.3014254,27.8392 C85.5804254,27.9752 85.8294254,28.1672 86.0564254,28.4702 C86.4014254,28.9312 86.8314254,29.5582 87.3084254,30.3022 C88.1444254,31.6072 89.1264254,33.2762 90.1304254,35.1532 C91.6374254,37.9692 93.1984254,41.2572 94.4404254,44.5132 C95.0614254,46.1402 95.6024254,47.7592 96.0204254,49.2982 C96.3094254,50.3582 96.5384254,51.3812 96.6984254,52.3382 C96.7704254,52.7682 96.8284254,53.1852 96.8704254,53.5862 C97.0314254,55.0882 98.3014254,56.2032 99.7784254,56.2032 C99.8824254,56.2032 99.9874254,56.1982 100.093425,56.1872 C101.701425,56.0152 102.866425,54.5722 102.694425,52.9642 C102.546425,51.5962 102.283425,50.1932 101.933425,48.7712 C101.920425,48.7162 101.907425,48.6622 101.893425,48.6082 C101.592425,47.4052 101.229425,46.1882 100.823425,44.9692 C100.570425,44.2112 100.299425,43.4532 100.014425,42.6972 C98.3654254,42.6922 96.6984254,42.5532 95.0304254,42.2682 C93.8014254,42.0582 92.8464254,41.1042 92.6374254,39.8742 C92.3424254,38.1502 92.1954254,36.4052 92.1954254,34.6612 C92.1954254,32.4842 92.4244254,30.3082 92.8834254,28.1692 C92.5234254,27.5832 92.1764254,27.0372 91.8454254,26.5372 C91.4584254,25.9512 91.0934254,25.4282 90.7504254,24.9672 C89.9554254,23.9012 88.9374254,23.0882 87.8394254,22.5622 C86.7394254,22.0332 85.5644254,21.7812 84.4074254,21.7812 C83.5134254,21.7812 82.6264254,21.9312 81.7814254,22.2342 Z" id="Fill-540"></path>
                <path d="M98.0517254,34.6608 C98.0517254,31.4618 98.6627254,28.2648 99.8807254,25.2598 C101.099725,22.2548 102.923725,19.4428 105.367725,16.9988 C107.812725,14.5548 110.624725,12.7308 113.629725,11.5118 C116.633725,10.2928 119.831725,9.6828 123.030725,9.6828 C123.772725,9.6828 124.514725,9.7158 125.254725,9.7818 C125.392725,10.7938 125.459725,11.7918 125.459725,12.7758 C125.458725,16.0548 124.722725,19.1768 123.397725,22.0438 C121.414725,26.3428 118.086725,30.0628 113.993725,32.6888 C111.948725,34.0018 109.715725,35.0408 107.373725,35.7508 C105.031725,36.4608 102.581725,36.8408 100.094725,36.8408 C99.4457254,36.8408 98.7937254,36.8148 98.1397254,36.7618 C98.0807254,36.0628 98.0517254,35.3618 98.0517254,34.6608 Z M122.879725,3.8268 C118.986725,3.8458 115.095725,4.5978 111.428725,6.0838 C107.714725,7.5898 104.230725,9.8518 101.226725,12.8578 C98.2217254,15.8618 95.9587254,19.3458 94.4537254,23.0588 C93.7787254,24.7238 93.2547254,26.4338 92.8827254,28.1698 C92.4247254,30.3078 92.1957254,32.4848 92.1957254,34.6608 C92.1957254,36.4058 92.3427254,38.1498 92.6367254,39.8748 C92.8467254,41.1038 93.8017254,42.0588 95.0307254,42.2688 C96.6987254,42.5528 98.3657254,42.6928 100.014725,42.6968 C100.041725,42.6968 100.067725,42.6968 100.094725,42.6968 C104.207725,42.6968 108.207725,41.8588 111.890725,40.3548 C117.414725,38.0958 122.239725,34.3448 125.718725,29.5838 C127.456725,27.2028 128.855725,24.5668 129.820725,21.7408 C130.786725,18.9148 131.316725,15.8978 131.315735,12.7758 C131.316725,10.7208 131.086725,8.6218 130.606725,6.5068 C130.344725,5.3518 129.410725,4.4668 128.243725,4.2678 L127.750725,7.1548 L124.895725,7.8028 L127.750725,7.1548 L128.243725,4.2678 C126.569725,3.9818 124.876725,3.8348 123.182725,3.8268 L122.879725,3.8268 Z" id="Fill-542"></path>
                <path d="M122.678925,131.5043 L122.630925,131.5673 C121.646925,132.8503 121.889925,134.6883 123.173925,135.6723 C123.704925,136.0793 124.330925,136.2773 124.952925,136.2773 C125.832925,136.2773 126.701925,135.8823 127.278925,135.1293 L127.326925,135.0673 C128.310925,133.7833 128.067925,131.9453 126.783925,130.9613 C126.252925,130.5543 125.625925,130.3573 125.004925,130.3573 C124.124925,130.3573 123.254925,130.7523 122.678925,131.5043 Z M134.929925,111.9293 C133.231925,116.1463 131.014925,120.4493 127.754925,124.8583 C126.792925,126.1583 127.067925,127.9923 128.367925,128.9543 C128.890925,129.3413 129.501925,129.5283 130.106925,129.5283 C131.003925,129.5283 131.888925,129.1173 132.462925,128.3413 C136.055925,123.4853 138.520925,118.6953 140.362925,114.1163 C140.966925,112.6163 140.240925,110.9103 138.739925,110.3063 C138.381925,110.1623 138.011925,110.0943 137.647925,110.0943 C136.487925,110.0943 135.389925,110.7873 134.929925,111.9293 Z" id="Fill-544"></path>
                <path d="M46.1727254,6.868 C46.1737254,3.076 43.1007254,0 39.3077254,0 L39.3047254,0 L20.9807254,0 C17.1887254,0.005 14.1167254,3.077 14.1117254,6.869 L14.1117254,19.167 C14.0887254,20.56 15.1487254,21.733 16.5377254,21.85 L16.5377254,24.903 C10.6777254,30.21 6.14872535,36.82 3.31572535,44.201 C2.96472535,45.121 2.53172535,46.331 2.09772535,47.797 C1.68272535,49.257 2.52972535,50.778 3.98972535,51.193 C5.42972535,51.603 6.93172535,50.786 7.37072535,49.355 C7.86472535,47.609 8.49572535,45.905 9.25672535,44.259 L51.0277254,44.259 C54.7637254,52.737 55.7117254,62.182 53.7357254,71.234 L6.53572535,71.235 C5.76972535,67.881 5.42472535,64.444 5.51072535,61.005 C5.53572535,59.488 4.32572535,58.238 2.80872535,58.213 C1.31072535,58.188 0.0687253544,59.369 0.0177253544,60.866 C-0.143274646,66.689 0.793725354,72.49 2.77872535,77.966 C4.17172535,81.803 2.95372535,84.379 1.83672535,87.761 C0.651725354,91.349 0.919725354,92.346 0.919725354,108.922 C0.935725354,109.446 1.10372535,109.954 1.40372535,110.385 C1.02772535,111.22 0.831725354,112.126 0.828725354,113.043 L0.827725354,118.352 C0.832725354,119.844 1.32772535,121.293 2.23772535,122.476 C1.32972535,123.658 0.834725354,125.106 0.828725354,126.597 L0.827725354,131.906 C0.831725354,133.398 1.32672535,134.846 2.23572535,136.029 C1.32772535,137.211 0.832725354,138.658 0.827725354,140.148 L0.828725354,145.459 C0.835725354,146.68 1.17072535,147.876 1.79972535,148.922 C-1.56027465,153.275 1.76072535,167.577 14.1337254,167.581 L46.1527254,167.581 C49.7237254,167.589 53.1507254,166.17 55.6687254,163.638 C60.4997254,158.807 60.3527254,151.335 58.4877254,148.92 C59.1157254,147.875 59.4507254,146.68 59.4577254,145.46 L59.4567254,140.149 C59.4517254,138.658 58.9567254,137.211 58.0487254,136.029 C58.9577254,134.846 59.4527254,133.398 59.4577254,131.906 L59.4567254,126.595 C59.4527254,125.104 58.9587254,123.656 58.0497254,122.475 C58.9587254,121.293 59.4527254,119.844 59.4567254,118.353 L59.4577254,113.043 C59.4577254,112.118 59.2707254,111.202 58.9057254,110.351 C59.1927254,109.928 59.3517254,109.431 59.3647254,108.921 C59.3667254,92.289 59.6307254,91.346 58.4487254,87.763 C57.3617254,84.465 56.0957254,81.836 57.5067254,77.968 C61.3687254,67.009 61.1787254,55.03 56.9707254,44.2 C54.1427254,36.817 49.6117254,30.206 43.7467254,24.905 L43.7467254,21.848 C45.1357254,21.733 46.1967254,20.56 46.1727254,19.166 L46.1727254,6.868 Z M54.1147254,154.123 C54.0147254,158.478 50.5077254,161.985 46.1527254,162.085 L14.1337254,162.086 C9.73772535,162.08 6.17672535,158.518 6.17172535,154.122 L5.99272535,152.327 L7.63772535,152.322 L7.69672535,152.327 L52.5897254,152.328 C53.0937254,152.325 53.5967254,152.266 54.0887254,152.152 L54.1127254,152.152 L54.1147254,154.123 Z M53.9627254,145.46 C53.9577254,146.215 53.3487254,146.826 52.5937254,146.833 L7.69672535,146.833 C6.93872535,146.832 6.32472535,146.217 6.32372535,145.459 L6.32272535,140.148 C6.32772535,139.391 6.93972535,138.779 7.69572535,138.774 L52.5887254,138.775 C53.3467254,138.776 53.9607254,139.391 53.9617254,140.149 L53.9627254,145.46 Z M53.9627254,131.906 C53.9627254,132.665 53.3477254,133.281 52.5887254,133.281 L7.69272535,133.279 C6.93572535,133.278 6.32172535,132.664 6.32272292,131.906 L6.32372535,126.597 C6.32472535,125.838 6.93972535,125.223 7.69772535,125.222 L52.5877254,125.222 C53.3457254,125.223 53.9607254,125.837 53.9617254,126.595 L53.9627254,131.906 Z M53.9617254,118.353 C53.9637254,119.11 53.3507254,119.724 52.5937254,119.726 L7.69772535,119.727 C6.93872535,119.727 6.32272535,119.111 6.32272535,118.352 L6.32472535,113.042 C6.32372535,112.284 6.93772535,111.67 7.69472535,111.669 C32.0107254,111.668 23.3487254,111.669 52.5877254,111.668 C53.3467254,111.669 53.9617254,112.284 53.9627254,113.043 L53.9617254,118.353 Z M53.2297254,89.484 C54.1947254,92.405 53.8707254,94.195 53.8697254,106.173 C52.2907254,106.173 8.74172535,106.174 6.41472535,106.174 C6.41372535,94.258 6.08972535,92.404 7.05472535,89.483 C8.94472535,85.502 9.32272535,80.969 8.11872535,76.729 L52.1667254,76.729 C50.9627254,80.969 51.3407254,85.502 53.2297254,89.484 Z M38.2517254,26.143 C38.2517254,26.943 38.6007254,27.704 39.2077254,28.226 C42.7127254,31.262 45.7327254,34.816 48.1627254,38.764 L12.1227254,38.764 C14.5557254,34.818 17.5747254,31.264 21.0767254,28.227 C21.6837254,27.705 22.0327254,26.944 22.0327254,26.144 L22.0317254,21.914 C28.2917254,21.914 24.3667254,21.914 38.2517254,21.915 L38.2517254,26.143 Z M40.6787254,16.419 C27.7567254,16.42 32.5377254,16.419 19.6057254,16.419 L19.6067254,6.869 C19.6057254,6.11 20.2217254,5.494 20.9807254,5.494 L39.3047254,5.494 C40.0627254,5.494 40.6777254,6.108 40.6787254,6.866 L40.6787254,16.419 Z" id="Fill-548"></path>
            </g>
        </g>
    </g>
</svg>