<svg width="1241px" height="236px" viewBox="0 0 1241 236" version="1.1" xmlns="http://www.w3.org/2000/svg" xmlns:xlink="http://www.w3.org/1999/xlink">
    <g id="Page-1" stroke="none" stroke-width="1" fill="none" fill-rule="evenodd">
        <g id="Group" transform="translate(0.746900, -0.000400)">
            <path d="M709.0458,86.2931 C716.6658,82.6031 722.6818,77.6011 727.0898,71.2871 C731.4938,64.9761 733.6988,57.2351 733.6988,48.0631 L733.6988,47.7051 C733.6988,41.2741 732.7448,35.6771 730.8408,30.9131 C728.9348,26.1501 726.0758,21.8631 722.2658,18.0501 C717.8578,13.6451 712.0518,10.1611 704.8478,7.5991 C697.6398,5.0391 688.4398,3.7581 677.2468,3.7581 L616.1488,3.7581 L616.1488,26.6041 C613.5248,21.9641 610.0958,18.0401 605.8578,14.8341 C600.9718,11.1431 595.1078,8.3751 588.2608,6.5271 C581.4098,4.6821 573.8178,3.7581 565.4828,3.7581 L509.2088,3.7581 L509.2088,128.8111 C551.0508,128.8111 551.0118,106.3461 551.0118,106.3461 L551.0118,94.8681 L564.5898,94.8681 C573.0448,94.8681 580.7568,93.8861 587.7238,91.9211 C594.6908,89.9561 600.6768,87.0081 605.6788,83.0781 C610.0228,79.6641 613.5108,75.5561 616.1488,70.7501 L616.1488,128.8111 C657.8548,128.8111 657.9518,106.3421 657.9518,106.3421 L657.9518,93.0821 L666.5278,93.0821 L666.8848,93.0821 L690.4668,128.8111 L738.1658,128.8111 L709.0458,86.2931 Z M580.1318,51.2791 C580.1318,55.8061 578.4938,59.2281 575.2188,61.5511 C571.9418,63.8731 567.6268,65.0341 562.2678,65.0341 L551.0118,65.0341 L551.0118,37.1651 L562.4458,37.1651 C568.0428,37.1651 572.3888,38.3261 575.4878,40.6491 C578.5828,42.9711 580.1318,46.3961 580.1318,50.9211 L580.1318,51.2791 Z M692.0748,51.0991 C692.0748,54.9131 690.6448,57.8881 687.7868,60.0321 C684.9288,62.1761 680.9978,63.2481 675.9958,63.2481 L657.9518,63.2481 L657.9518,38.7731 L676.1748,38.7731 C681.0558,38.7731 684.9288,39.7551 687.7868,41.7211 C690.6448,43.6861 692.0748,46.6951 692.0748,50.7421 L692.0748,51.0991 Z" id="Fill-33" fill="#FFFFFE"></path>
            <path d="M880.8075,128.8117 L880.8075,3.7577 L919.9315,3.7577 L964.4155,58.9597 L964.4155,3.7577 L1005.8615,3.7577 L1005.8615,128.8117 L968.7025,128.8117 L922.2545,71.1077 L922.2545,106.3427 C922.2545,106.3427 922.2855,128.8117 880.8075,128.8117" id="Fill-35" fill="#FFFFFE"></path>
            <path d="M1005.8614,39.1305 L1039.0514,39.1305 L1039.0514,128.8115 C1080.7804,128.8115 1080.8554,106.3425 1080.8554,106.3425 L1080.8554,39.1305 L1117.6564,39.1305 L1117.6564,3.7575 L1005.8614,3.7575 L1005.8614,39.1305 Z" id="Fill-37" fill="#FFFFFE"></path>
            <path d="M846.5595,12.976 C835.3975,4.819 821.6405,0 806.7575,0 C769.4585,0 739.2225,30.237 739.2225,67.535 L741.2315,67.463 C741.2315,42.256 759.6565,22.868 784.8635,22.868 C797.2595,22.868 808.4935,27.817 816.7195,35.838 L846.5595,12.976 Z" id="Fill-39" fill="#FFFFFE"></path>
            <path d="M830.2011,63.309 C830.3951,65.017 830.5051,66.75 830.5051,68.51 L874.2921,67.535 C874.2921,51.989 869.0361,37.672 860.2081,26.258 L830.2011,63.309 Z" id="Fill-41" fill="#FFFFFE"></path>
            <path d="M807.1059,77.189 C803.8959,77.189 800.6859,75.974 798.2669,73.555 C793.5189,68.807 793.4169,60.983 798.0409,56.116 C798.1689,55.981 798.3079,55.857 798.4529,55.746 L860.1589,8.472 C861.5239,7.427 863.3829,7.562 864.5829,8.794 C865.7809,10.024 865.8659,11.887 864.7849,13.223 L816.0519,73.409 C815.9619,73.52 815.8589,73.633 815.7499,73.738 C813.3499,76.041 810.2269,77.189 807.1059,77.189 L807.1059,77.189 Z" id="Fill-43" fill="#71C3BD"></path>
            <path d="M1171.7634,131.4372 C1162.1234,131.4372 1153.1664,129.7692 1144.8954,126.4382 C1136.6214,123.1082 1129.4224,118.5252 1123.2934,112.6922 C1117.1624,106.8622 1112.3724,99.9892 1108.9224,92.0722 C1105.4684,84.1582 1103.7454,75.6782 1103.7454,66.6322 L1103.7454,66.2752 C1103.7454,57.2322 1105.4994,48.7522 1109.0114,40.8352 C1112.5204,32.9212 1117.3414,26.0172 1123.4724,20.1262 C1129.6004,14.2352 1136.8314,9.5932 1145.1634,6.2012 C1153.4924,2.8092 1162.4804,1.1132 1172.1204,1.1132 C1181.7614,1.1132 1190.7154,2.7812 1198.9884,6.1122 C1207.2594,9.4452 1214.4584,14.0282 1220.5904,19.8582 C1226.7184,25.6912 1231.5084,32.5642 1234.9614,40.4782 C1238.4124,48.3952 1240.1384,56.8742 1240.1384,65.9182 L1240.1384,66.2752 C1240.1384,75.3212 1238.3814,83.8012 1234.8724,91.7152 C1231.3604,99.6312 1226.5404,106.5322 1220.4114,112.4242 C1214.2804,118.3152 1207.0504,122.9572 1198.7204,126.3492 C1190.3884,129.7412 1181.4044,131.4372 1171.7634,131.4372 M1172.1204,94.4822 C1176.0484,94.4822 1179.6184,93.7092 1182.8324,92.1612 C1186.0454,90.6162 1188.7824,88.5632 1191.0444,86.0022 C1193.3034,83.4442 1195.0304,80.4982 1196.2214,77.1652 C1197.4094,73.8342 1198.0064,70.3222 1198.0064,66.6322 L1198.0064,66.2752 C1198.0064,62.5872 1197.3814,59.0452 1196.1324,55.6532 C1194.8824,52.2602 1193.1254,49.2572 1190.8654,46.6372 C1188.6034,44.0202 1185.8674,41.9372 1182.6534,40.3892 C1179.4404,38.8432 1175.8084,38.0682 1171.7634,38.0682 C1167.8354,38.0682 1164.2654,38.8432 1161.0514,40.3892 C1157.8384,41.9372 1155.0994,43.9902 1152.8394,46.5482 C1150.5774,49.1092 1148.8504,52.0542 1147.6624,55.3852 C1146.4714,58.7182 1145.8774,62.2302 1145.8774,65.9182 L1145.8774,66.2752 C1145.8774,69.9652 1146.5024,73.5052 1147.7514,76.8972 C1149.0014,80.2892 1150.7564,83.2962 1153.0184,85.9132 C1155.2774,88.5322 1158.0164,90.6162 1161.2304,92.1612 C1164.4434,93.7092 1168.0724,94.4822 1172.1204,94.4822" id="Fill-45" fill="#FFFFFE"></path>
            <polygon id="Fill-48-Copy" fill="#71C3BD" points="97.065 128.7614 9.027 17.6864 9.027 128.7614 0.098 128.7614 0.098 3.7584 8.848 3.7584 95.101 112.5114 95.101 3.7584 104.029 3.7584 104.029 128.7614"></polygon>
            <path d="M225.4602,99.3855 C222.9602,106.2325 219.4472,111.9755 214.9242,116.6185 C210.3982,121.2615 205.0132,124.7745 198.7632,127.1545 C192.5132,129.5345 185.5762,130.7255 177.9592,130.7255 C170.4592,130.7255 163.5832,129.5645 157.3332,127.2435 C151.0832,124.9215 145.6642,121.4705 141.0832,116.8865 C136.4982,112.3045 132.9572,106.6795 130.4572,100.0105 C127.9572,93.3445 126.7072,85.6075 126.7072,76.7955 L126.7072,3.7575 L135.9932,3.7575 L135.9932,75.9025 C135.9932,90.7855 139.7132,102.2425 147.1542,110.2785 C154.5932,118.3145 164.9812,122.3325 178.3162,122.3325 C184.6252,122.3325 190.3392,121.3815 195.4592,119.4755 C200.5762,117.5725 204.9522,114.7155 208.5842,110.9035 C212.2152,107.0955 215.0132,102.3325 216.9782,96.6175 C218.9422,90.9035 219.9242,84.2955 219.9242,76.7955 L219.9242,3.7575 L229.2102,3.7575 L229.2102,75.7245 C229.2102,84.6525 227.9602,92.5405 225.4602,99.3855" id="Fill-49-Copy" fill="#71C3BD"></path>
            <polygon id="Fill-51-Copy" fill="#71C3BD" points="295.8183 12.1509 295.8183 128.7609 286.5323 128.7609 286.5323 12.1509 242.9593 12.1509 242.9593 3.7579 339.3913 3.7579 339.3913 12.1509"></polygon>
            <path d="M445.1073,128.7614 L405.2843,76.9744 L364.3903,76.9744 L364.3903,128.7614 L355.1043,128.7614 L355.1043,3.7584 L407.6063,3.7584 C414.3923,3.7584 420.5223,4.6224 425.9993,6.3474 C431.4743,8.0744 436.1473,10.5154 440.0183,13.6684 C443.8853,16.8244 446.8933,20.5744 449.0363,24.9194 C451.1793,29.2664 452.2503,34.0574 452.2503,39.2944 L452.2503,39.6514 C452.2503,44.8914 451.3273,49.5624 449.4823,53.6704 C447.6353,57.7774 445.0763,61.3204 441.8033,64.2954 C438.5283,67.2724 434.6603,69.6834 430.1963,71.5274 C425.7323,73.3744 420.8793,74.6524 415.6423,75.3674 L456.8933,128.7614 L445.1073,128.7614 Z M442.9643,39.5594 C442.9643,31.0834 439.8393,24.3944 433.5893,19.4974 C427.3393,14.6004 418.4993,12.1514 407.0703,12.1514 L364.3903,12.1514 L364.3903,68.5814 L406.5353,68.5814 C411.7723,68.5814 416.6243,67.9254 421.0883,66.6114 C425.5533,65.2994 429.3923,63.4194 432.6073,60.9694 C435.8213,58.5194 438.3493,55.5334 440.1963,52.0094 C442.0413,48.4884 442.9643,44.4564 442.9643,39.9164 L442.9643,39.5594 Z" id="Fill-52-Copy" fill="#71C3BD"></path>
            <polygon id="Fill-54-Copy" fill="#71C3BD" points="472.9641 128.7614 482.2501 128.7614 482.2501 3.7584 472.9641 3.7584"></polygon>
            <g id="Group-111-Copy" transform="translate(-0.000000, 193.857000)" fill="#FFFFFE">
                <path d="M2.84217094e-14,1.0505 C2.84217094e-14,0.4675 0.525,0.0005 1.108,0.0005 L2.567,0.0005 L25.84,22.3985 L25.898,22.3985 L25.898,1.6915 C25.898,1.1085 26.365,0.5835 27.006,0.5835 L34.006,0.5835 C34.589,0.5835 35.114,1.1085 35.114,1.6915 L35.114,40.9475 C35.114,41.5315 34.589,41.9975 34.006,41.9975 L33.073,41.9975 C32.898,41.9975 32.431,41.8225 32.314,41.7055 L9.274,18.5495 L9.216,18.5495 L9.216,40.3055 C9.216,40.8895 8.75,41.4145 8.108,41.4145 L1.167,41.4145 C0.583,41.4145 0.058,40.8895 0.058,40.3055 L2.84217094e-14,1.0505 Z" id="Fill-55"></path>
                <path d="M50.2232,1.692 C50.2232,1.109 50.7482,0.584 51.3312,0.584 L58.5062,0.584 C59.1472,0.584 59.6142,1.109 59.6142,1.692 L59.6142,25.315 C59.6142,29.399 62.6472,32.665 66.7892,32.665 C70.9882,32.665 74.0802,29.399 74.0802,25.315 L74.0802,1.692 C74.0802,1.109 74.5462,0.584 75.1882,0.584 L82.3622,0.584 C82.9462,0.584 83.4712,1.109 83.4712,1.692 L83.4712,25.782 C83.4712,34.648 76.0052,41.998 66.7892,41.998 C57.6312,41.998 50.2232,34.648 50.2232,25.782 L50.2232,1.692 Z" id="Fill-57"></path>
                <path d="M103.9453,9.1583 L95.6043,9.1583 C94.9623,9.1583 94.4963,8.6333 94.4963,8.0503 L94.4963,1.6923 C94.4963,1.1083 94.9623,0.5833 95.6043,0.5833 L121.5023,0.5833 C122.1443,0.5833 122.6103,1.1083 122.6103,1.6923 L122.6103,8.0503 C122.6103,8.6333 122.1443,9.1583 121.5023,9.1583 L113.1613,9.1583 L113.1613,40.3063 C113.1613,40.8893 112.6363,41.4143 112.0533,41.4143 L105.0533,41.4143 C104.4703,41.4143 103.9453,40.8893 103.9453,40.3063 L103.9453,9.1583 Z" id="Fill-59"></path>
                <path d="M134.2772,1.692 C134.2772,1.109 134.7442,0.584 135.3852,0.584 L152.8262,0.584 C159.8252,0.584 165.5412,6.242 165.5412,13.183 C165.5412,18.549 161.9832,22.866 156.9092,24.907 L164.9002,39.723 C165.3082,40.481 164.9002,41.414 163.9082,41.414 L156.1512,41.414 C155.6842,41.414 155.3342,41.123 155.2172,40.889 L147.4592,25.432 L143.4352,25.432 L143.4352,40.306 C143.4352,40.889 142.9102,41.414 142.3262,41.414 L135.3852,41.414 C134.7442,41.414 134.2772,40.889 134.2772,40.306 L134.2772,1.692 Z M152.0672,18.024 C154.4592,18.024 156.5002,15.808 156.5002,13.358 C156.5002,10.908 154.4592,8.925 152.0672,8.925 L143.4352,8.925 L143.4352,18.024 L152.0672,18.024 Z" id="Fill-61"></path>
                <path d="M179.1919,1.692 C179.1919,1.109 179.7169,0.584 180.2999,0.584 L187.2999,0.584 C187.8829,0.584 188.4079,1.109 188.4079,1.692 L188.4079,40.306 C188.4079,40.889 187.8829,41.414 187.2999,41.414 L180.2999,41.414 C179.7169,41.414 179.1919,40.889 179.1919,40.306 L179.1919,1.692 Z" id="Fill-63"></path>
                <path d="M209.5228,9.1583 L201.1818,9.1583 C200.5398,9.1583 200.0738,8.6333 200.0738,8.0503 L200.0738,1.6923 C200.0738,1.1083 200.5398,0.5833 201.1818,0.5833 L227.0798,0.5833 C227.7218,0.5833 228.1878,1.1083 228.1878,1.6923 L228.1878,8.0503 C228.1878,8.6333 227.7218,9.1583 227.0798,9.1583 L218.7388,9.1583 L218.7388,40.3063 C218.7388,40.8893 218.2138,41.4143 217.6308,41.4143 L210.6308,41.4143 C210.0478,41.4143 209.5228,40.8893 209.5228,40.3063 L209.5228,9.1583 Z" id="Fill-65"></path>
                <path d="M239.8547,1.692 C239.8547,1.109 240.3797,0.584 240.9627,0.584 L247.9627,0.584 C248.5457,0.584 249.0707,1.109 249.0707,1.692 L249.0707,40.306 C249.0707,40.889 248.5457,41.414 247.9627,41.414 L240.9627,41.414 C240.3797,41.414 239.8547,40.889 239.8547,40.306 L239.8547,1.692 Z" id="Fill-67"></path>
                <path d="M282.9017,0.0003 C294.5677,0.0003 303.9007,9.3913 303.9007,21.0573 C303.9007,32.7233 294.5677,41.9973 282.9017,41.9973 C271.2357,41.9973 261.9617,32.7233 261.9617,21.0573 C261.9617,9.3913 271.2357,0.0003 282.9017,0.0003 M282.9017,32.6643 C289.3177,32.6643 294.5677,27.4153 294.5677,21.0573 C294.5677,14.6413 289.3177,9.3333 282.9017,9.3333 C276.5437,9.3333 271.2947,14.6413 271.2947,21.0573 C271.2947,27.4153 276.5437,32.6643 282.9017,32.6643" id="Fill-69"></path>
                <path d="M316.7331,1.0505 C316.7331,0.4675 317.2581,0.0005 317.8411,0.0005 L319.3001,0.0005 L342.5731,22.3985 L342.6311,22.3985 L342.6311,1.6915 C342.6311,1.1085 343.0981,0.5835 343.7391,0.5835 L350.7391,0.5835 C351.3221,0.5835 351.8471,1.1085 351.8471,1.6915 L351.8471,40.9475 C351.8471,41.5315 351.3221,41.9975 350.7391,41.9975 L349.8061,41.9975 C349.6311,41.9975 349.1641,41.8225 349.0471,41.7055 L326.0071,18.5495 L325.9491,18.5495 L325.9491,40.3055 C325.9491,40.8895 325.4831,41.4145 324.8411,41.4145 L317.9001,41.4145 C317.3161,41.4145 316.7911,40.8895 316.7911,40.3055 L316.7331,1.0505 Z" id="Fill-71"></path>
                <path d="M387.6046,1.342 C387.6046,0.934 387.9546,0.584 388.3626,0.584 L411.7526,0.584 C412.1616,0.584 412.5116,0.934 412.5116,1.342 L412.5116,2.334 C412.5116,2.742 412.1616,3.092 411.7526,3.092 L390.4046,3.092 L390.4046,20.824 L408.8946,20.824 C409.3036,20.824 409.6526,21.174 409.6526,21.582 C409.6526,22.224 409.7696,23.274 408.8946,23.274 L390.4046,23.274 L390.3466,40.656 C390.3466,41.064 389.9956,41.414 389.4126,41.414 L388.3626,41.414 C387.9546,41.414 387.6046,41.064 387.6046,40.656 L387.6046,1.342 Z" id="Fill-73"></path>
                <path d="M444.9432,0.0003 C456.6672,0.0003 466.0002,9.3913 466.0002,21.0573 C466.0002,32.7813 456.6672,41.9973 444.9432,41.9973 C433.2772,41.9973 423.9442,32.7813 423.9442,21.0573 C423.9442,9.3913 433.2772,0.0003 444.9432,0.0003 M444.9432,39.4313 C455.1512,39.4313 463.4332,31.2653 463.4332,21.0573 C463.4332,10.8493 455.1512,2.5673 444.9432,2.5673 C434.7352,2.5673 426.5112,10.8493 426.5112,21.0573 C426.5112,31.2653 434.7352,39.4313 444.9432,39.4313" id="Fill-75"></path>
                <path d="M481.2834,1.342 C481.2834,0.934 481.5754,0.584 482.0414,0.584 L496.5074,0.584 C503.6234,0.584 509.5144,5.95 509.5144,13.066 C509.5144,18.958 505.4314,23.682 499.8904,25.257 L508.4064,40.364 C508.6984,40.831 508.5814,41.414 507.9984,41.414 L506.1904,41.414 C505.7814,41.414 505.5484,41.239 505.3734,40.889 L496.9154,25.607 C496.1574,25.665 495.5154,25.665 494.7574,25.665 L484.0254,25.665 L484.0254,40.656 C484.0254,41.064 483.6744,41.414 483.0914,41.414 L482.0414,41.414 C481.6334,41.414 481.2834,41.064 481.2834,40.656 L481.2834,1.342 Z M496.3904,23.215 C501.9904,23.215 506.7154,18.841 506.7154,13.066 C506.7154,7.525 501.9904,3.267 496.3324,3.267 L484.0834,3.267 L484.0834,23.215 L496.3904,23.215 Z" id="Fill-77"></path>
                <path d="M560.3205,0.0003 C571.9865,0.0003 581.3195,9.3913 581.3195,21.0573 C581.3195,32.7233 571.9865,41.9973 560.3205,41.9973 C548.6545,41.9973 539.3805,32.7233 539.3805,21.0573 C539.3805,9.3913 548.6545,0.0003 560.3205,0.0003 M560.3205,32.6643 C566.7365,32.6643 571.9865,27.4153 571.9865,21.0573 C571.9865,14.6413 566.7365,9.3333 560.3205,9.3333 C553.9625,9.3333 548.7125,14.6413 548.7125,21.0573 C548.7125,27.4153 553.9625,32.6643 560.3205,32.6643" id="Fill-79"></path>
                <path d="M594.1521,1.0505 C594.1521,0.4675 594.6771,0.0005 595.2601,0.0005 L596.7191,0.0005 L619.9921,22.3985 L620.0501,22.3985 L620.0501,1.6915 C620.0501,1.1085 620.5171,0.5835 621.1581,0.5835 L628.1581,0.5835 C628.7411,0.5835 629.2661,1.1085 629.2661,1.6915 L629.2661,40.9475 C629.2661,41.5315 628.7411,41.9975 628.1581,41.9975 L627.2251,41.9975 C627.0501,41.9975 626.5831,41.8225 626.4661,41.7055 L603.4261,18.5495 L603.3681,18.5495 L603.3681,40.3055 C603.3681,40.8895 602.9021,41.4145 602.2601,41.4145 L595.3191,41.4145 C594.7351,41.4145 594.2101,40.8895 594.2101,40.3055 L594.1521,1.0505 Z" id="Fill-81"></path>
                <path d="M663.2153,0.0003 C669.0483,0.0003 673.3643,1.8083 677.3303,5.4253 C677.8563,5.8913 677.8563,6.5913 677.3893,7.0583 L672.8393,11.7833 C672.4313,12.1913 671.7893,12.1913 671.3813,11.7833 C669.2233,9.8583 666.3653,8.8083 663.5073,8.8083 C656.9153,8.8083 652.0743,14.2913 652.0743,20.8243 C652.0743,27.2983 656.9743,32.6643 663.5653,32.6643 C666.3063,32.6643 669.2813,31.6733 671.3813,29.8653 C671.7893,29.5153 672.5483,29.5153 672.8983,29.9233 L677.4473,34.7643 C677.8563,35.1733 677.7973,35.9313 677.3893,36.3393 C673.4233,40.1893 668.4063,41.9973 663.2153,41.9973 C651.5493,41.9973 642.1583,32.7233 642.1583,21.0573 C642.1583,9.3913 651.5493,0.0003 663.2153,0.0003" id="Fill-83"></path>
                <path d="M708.0131,0.0003 C719.6791,0.0003 729.0121,9.3913 729.0121,21.0573 C729.0121,32.7233 719.6791,41.9973 708.0131,41.9973 C696.3471,41.9973 687.0731,32.7233 687.0731,21.0573 C687.0731,9.3913 696.3471,0.0003 708.0131,0.0003 M708.0131,32.6643 C714.4291,32.6643 719.6791,27.4153 719.6791,21.0573 C719.6791,14.6413 714.4291,9.3333 708.0131,9.3333 C701.6551,9.3333 696.4061,14.6413 696.4061,21.0573 C696.4061,27.4153 701.6551,32.6643 708.0131,32.6643" id="Fill-85"></path>
                <path d="M741.9029,1.692 C741.9029,1.109 742.3699,0.584 743.0109,0.584 L749.9519,0.584 C750.5349,0.584 751.0609,1.109 751.0609,1.692 L751.0609,32.84 L764.9429,32.84 C765.5849,32.84 766.0509,33.365 766.0509,33.948 L766.0509,40.306 C766.0509,40.889 765.5849,41.414 764.9429,41.414 L743.0109,41.414 C742.3699,41.414 741.9029,40.889 741.9029,40.306 L741.9029,1.692 Z" id="Fill-87"></path>
                <path d="M795.2747,0.0003 C806.9407,0.0003 816.2737,9.3913 816.2737,21.0573 C816.2737,32.7233 806.9407,41.9973 795.2747,41.9973 C783.6087,41.9973 774.3347,32.7233 774.3347,21.0573 C774.3347,9.3913 783.6087,0.0003 795.2747,0.0003 M795.2747,32.6643 C801.6907,32.6643 806.9407,27.4153 806.9407,21.0573 C806.9407,14.6413 801.6907,9.3333 795.2747,9.3333 C788.9167,9.3333 783.6667,14.6413 783.6667,21.0573 C783.6667,27.4153 788.9167,32.6643 795.2747,32.6643" id="Fill-89"></path>
                <path d="M847.1879,0.0589 C852.0879,0.0589 857.4539,2.1009 861.4209,5.5419 C861.9449,5.9499 862.0039,6.6499 861.5369,7.1169 L856.9289,12.0159 C856.4619,12.4239 855.8209,12.4239 855.3539,12.0749 C853.1379,10.0329 850.5709,9.2749 847.7129,9.2749 C841.3549,9.2749 836.2219,14.6409 836.2219,21.0569 C836.2219,27.4149 841.4139,32.6649 847.7709,32.6649 C849.4629,32.6649 851.2129,32.4319 852.9629,31.7319 L852.9629,28.3489 L849.2879,28.3489 C848.6459,28.3489 848.1799,27.8819 848.1799,27.2989 L848.1799,21.5239 C848.1799,20.8829 848.6459,20.4159 849.2879,20.4159 L861.0119,20.4159 C861.5959,20.4159 862.0619,20.9409 862.0619,21.5239 L862.1199,37.2149 C862.1199,37.5059 861.8869,37.9729 861.6539,38.1479 C861.6539,38.1479 855.6459,41.9389 847.1879,41.9389 C835.5809,41.9389 826.2479,32.7229 826.2479,21.0569 C826.2479,9.3919 835.5809,0.0589 847.1879,0.0589" id="Fill-91"></path>
                <path d="M883.4699,21.7573 L870.5789,2.2753 C870.1129,1.5173 870.5789,0.5833 871.5119,0.5833 L879.0949,0.5833 C879.5619,0.5833 879.8529,0.8753 880.0279,1.1083 L888.1359,13.0663 L896.2439,1.1083 C896.4189,0.8753 896.6519,0.5833 897.1769,0.5833 L904.7599,0.5833 C905.6929,0.5833 906.1599,1.5173 905.6929,2.2753 L892.6269,21.6993 L892.6269,40.3063 C892.6269,40.8893 892.1029,41.4143 891.5189,41.4143 L884.5779,41.4143 C883.9359,41.4143 883.4699,40.8893 883.4699,40.3063 L883.4699,21.7573 Z" id="Fill-93"></path>
                <path d="M934.9177,1.692 C934.9177,1.109 935.3847,0.584 936.0257,0.584 L950.0837,0.584 C957.2577,0.584 963.1487,6.417 963.1487,13.475 C963.1487,20.708 957.2577,26.599 950.1417,26.599 L944.0167,26.599 L944.0167,40.306 C944.0167,40.889 943.4917,41.414 942.9087,41.414 L936.0257,41.414 C935.3847,41.414 934.9177,40.889 934.9177,40.306 L934.9177,1.692 Z M949.5587,18.083 C952.0667,18.083 954.1667,16.099 954.1667,13.475 C954.1667,11.025 952.0667,9.158 949.5587,9.158 L944.0167,9.158 L944.0167,18.083 L949.5587,18.083 Z" id="Fill-95"></path>
                <path d="M967.5243,39.8976 L985.7813,0.6416 C985.9563,0.2926 986.3643,0.0006 986.7733,0.0006 L987.3563,0.0006 C987.7643,0.0006 988.1733,0.2926 988.3483,0.6416 L1006.6053,39.8976 C1006.9543,40.6556 1006.4883,41.4146 1005.6133,41.4146 L999.1393,41.4146 C998.0883,41.4146 997.6223,41.0646 997.0973,39.9566 L994.9973,35.3476 L979.1323,35.3476 L977.0323,40.0146 C976.7403,40.7146 976.0983,41.4146 974.9323,41.4146 L968.5163,41.4146 C967.6403,41.4146 967.1743,40.6556 967.5243,39.8976 L967.5243,39.8976 Z M991.4973,27.4156 L987.0643,17.7906 L987.0063,17.7906 L982.6313,27.4156 L991.4973,27.4156 Z" id="Fill-97"></path>
                <path d="M1020.371,9.1583 L1012.03,9.1583 C1011.389,9.1583 1010.922,8.6333 1010.922,8.0503 L1010.922,1.6923 C1010.922,1.1083 1011.389,0.5833 1012.03,0.5833 L1037.928,0.5833 C1038.57,0.5833 1039.036,1.1083 1039.036,1.6923 L1039.036,8.0503 C1039.036,8.6333 1038.57,9.1583 1037.928,9.1583 L1029.587,9.1583 L1029.587,40.3063 C1029.587,40.8893 1029.062,41.4143 1028.479,41.4143 L1021.479,41.4143 C1020.896,41.4143 1020.371,40.8893 1020.371,40.3063 L1020.371,9.1583 Z" id="Fill-99"></path>
                <path d="M1050.7031,1.692 C1050.7031,1.109 1051.2281,0.584 1051.8111,0.584 L1058.8111,0.584 C1059.3941,0.584 1059.9191,1.109 1059.9191,1.692 L1059.9191,40.306 C1059.9191,40.889 1059.3941,41.414 1058.8111,41.414 L1051.8111,41.414 C1051.2281,41.414 1050.7031,40.889 1050.7031,40.306 L1050.7031,1.692 Z" id="Fill-101"></path>
                <path d="M1075.7848,1.692 C1075.7848,1.109 1076.2508,0.584 1076.8928,0.584 L1101.0408,0.584 C1101.6828,0.584 1102.1498,1.109 1102.1498,1.692 L1102.1498,8.05 C1102.1498,8.633 1101.6828,9.158 1101.0408,9.158 L1084.8838,9.158 L1084.8838,16.391 L1098.1828,16.391 C1098.7668,16.391 1099.2908,16.916 1099.2908,17.499 L1099.2908,23.857 C1099.2908,24.499 1098.7668,24.965 1098.1828,24.965 L1084.8838,24.965 L1084.8838,32.84 L1101.0408,32.84 C1101.6828,32.84 1102.1498,33.365 1102.1498,33.948 L1102.1498,40.306 C1102.1498,40.889 1101.6828,41.414 1101.0408,41.414 L1076.8928,41.414 C1076.2508,41.414 1075.7848,40.889 1075.7848,40.306 L1075.7848,1.692 Z" id="Fill-103"></path>
                <path d="M1115.7413,1.0505 C1115.7413,0.4675 1116.2663,0.0005 1116.8493,0.0005 L1118.3073,0.0005 L1141.5813,22.3985 L1141.6393,22.3985 L1141.6393,1.6915 C1141.6393,1.1085 1142.1063,0.5835 1142.7483,0.5835 L1149.7473,0.5835 C1150.3303,0.5835 1150.8553,1.1085 1150.8553,1.6915 L1150.8553,40.9475 C1150.8553,41.5315 1150.3303,41.9975 1149.7473,41.9975 L1148.8143,41.9975 C1148.6393,41.9975 1148.1723,41.8225 1148.0563,41.7055 L1125.0153,18.5495 L1124.9573,18.5495 L1124.9573,40.3055 C1124.9573,40.8895 1124.4913,41.4145 1123.8493,41.4145 L1116.9083,41.4145 C1116.3243,41.4145 1115.7993,40.8895 1115.7993,40.3055 L1115.7413,1.0505 Z" id="Fill-105"></path>
                <path d="M1171.9716,9.1583 L1163.6306,9.1583 C1162.9886,9.1583 1162.5226,8.6333 1162.5226,8.0503 L1162.5226,1.6923 C1162.5226,1.1083 1162.9886,0.5833 1163.6306,0.5833 L1189.5286,0.5833 C1190.1706,0.5833 1190.6366,1.1083 1190.6366,1.6923 L1190.6366,8.0503 C1190.6366,8.6333 1190.1706,9.1583 1189.5286,9.1583 L1181.1876,9.1583 L1181.1876,40.3063 C1181.1876,40.8893 1180.6626,41.4143 1180.0796,41.4143 L1173.0796,41.4143 C1172.4966,41.4143 1171.9716,40.8893 1171.9716,40.3063 L1171.9716,9.1583 Z" id="Fill-107"></path>
                <path d="M1199.9704,35.873 L1202.7124,31.032 C1203.1784,30.273 1204.2864,30.39 1204.6954,30.681 C1204.9284,30.798 1209.1284,33.89 1212.9774,33.89 C1215.3114,33.89 1217.0024,32.431 1217.0024,30.39 C1217.0024,27.94 1214.9614,26.074 1210.9944,24.499 C1205.9784,22.516 1199.6784,18.607 1199.6784,11.608 C1199.6784,5.833 1204.1704,0 1213.1524,0 C1219.2194,0 1223.8854,3.092 1225.6354,4.375 C1226.3354,4.784 1226.2184,5.833 1225.9854,6.242 L1223.0104,10.733 C1222.6024,11.375 1221.5524,11.9 1221.0274,11.491 C1220.5024,11.2 1216.2444,7.992 1212.6864,7.992 C1210.5864,7.992 1209.0114,9.391 1209.0114,10.966 C1209.0114,13.125 1210.7614,14.758 1215.3694,16.624 C1219.9184,18.432 1227.1514,21.991 1227.1514,29.924 C1227.1514,35.931 1221.9604,41.998 1213.3864,41.998 C1205.8034,41.998 1201.6034,38.848 1200.2624,37.506 C1199.6784,36.923 1199.5034,36.69 1199.9704,35.873" id="Fill-109"></path>
            </g>
        </g>
    </g>
</svg>