
<svg width="186px" height="202px" viewBox="0 0 186 202" version="1.1" xmlns="http://www.w3.org/2000/svg" xmlns:xlink="http://www.w3.org/1999/xlink">
    <g id="Page-1" stroke="none" stroke-width="1" fill="none" fill-rule="evenodd" stroke-linecap="round" stroke-linejoin="round">
        <g id="Desktop-HD" transform="translate(-627.000000, -411.000000)" stroke="#71C3BD" stroke-width="5.898">
            <path d="M738.378,447.8775 L744.02,442.2355 C745.573,440.6825 745.573,438.1615 744.02,436.6045 L722.58,415.1685 C721.027,413.6105 718.502,413.6105 716.949,415.1685 L695.508,436.6045 C693.955,438.1615 693.955,440.6825 695.508,442.2355 L716.949,463.6755 C718.502,465.2285 721.027,465.2285 722.58,463.6755 L728.647,457.6085 L738.378,447.8775 Z M714.413,492.6425 L741.213,492.6425 C743.407,492.6425 745.184,494.4195 745.184,496.6135 L745.184,507.7365 C745.184,509.9305 743.407,511.7075 741.213,511.7075 L698.316,511.7075 C696.122,511.7075 694.345,509.9305 694.345,507.7365 L694.345,496.6135 C694.345,494.4195 696.122,492.6425 698.316,492.6425 L700.651,492.6425 L714.413,492.6425 Z M734.297,609.4155 L741.213,609.4155 C743.407,609.4155 745.184,607.6385 745.184,605.4445 L745.184,594.3205 C745.184,592.1275 743.407,590.3495 741.213,590.3495 L698.316,590.3495 C696.122,590.3495 694.345,592.1275 694.345,594.3205 L694.345,605.4445 C694.345,607.6385 696.122,609.4155 698.316,609.4155 L720.535,609.4155 L734.297,609.4155 Z M741.212,560.5615 L698.316,560.5615 C696.123,560.5615 694.345,558.7835 694.345,556.5895 L694.345,545.4685 C694.345,543.2755 696.123,541.4965 698.316,541.4965 L741.212,541.4965 C743.406,541.4965 745.184,543.2755 745.184,545.4685 L745.184,556.5895 C745.184,558.7835 743.406,560.5615 741.212,560.5615 Z M805.557,560.5615 L762.66,560.5615 C760.467,560.5615 758.689,558.7835 758.689,556.5895 L758.689,545.4685 C758.689,543.2755 760.467,541.4965 762.66,541.4965 L805.557,541.4965 C807.75,541.4965 809.529,543.2755 809.529,545.4685 L809.529,556.5895 C809.529,558.7835 807.75,560.5615 805.557,560.5615 Z M803.174,502.1755 C803.174,512.7045 794.638,521.2405 784.109,521.2405 C773.579,521.2405 765.044,512.7045 765.044,502.1755 C765.044,491.6465 773.579,483.1105 784.109,483.1105 C794.638,483.1105 803.174,491.6465 803.174,502.1755 Z M633.972,560.5615 L676.868,560.5615 C679.062,560.5615 680.84,558.7835 680.84,556.5895 L680.84,545.4685 C680.84,543.2755 679.062,541.4965 676.868,541.4965 L633.972,541.4965 C631.779,541.4965 630,543.2755 630,545.4685 L630,556.5895 C630,558.7835 631.779,560.5615 633.972,560.5615 Z M636.355,502.1755 C636.355,512.7045 644.891,521.2405 655.42,521.2405 C665.95,521.2405 674.485,512.7045 674.485,502.1755 C674.485,491.6465 665.95,483.1105 655.42,483.1105 C644.891,483.1105 636.355,491.6465 636.355,502.1755 Z M719.764,464.8395 L719.764,492.6425 L719.764,464.8395 Z M719.764,511.7075 L719.764,541.4965 L719.764,511.7075 Z M719.764,560.5615 L719.764,590.3505 L719.764,560.5615 Z M784.109,521.2405 L784.109,541.4965 L784.109,521.2405 Z M655.42,521.2405 L655.42,541.4965 L655.42,521.2405 Z M655.42,560.5615 L655.42,599.8835 L694.345,599.8835 L655.42,560.5615 Z M784.109,560.5615 L784.109,599.8835 L745.184,599.8835 L784.109,560.5615 Z M674.485,502.1755 L694.344,502.1755 L674.485,502.1755 Z M765.044,502.1755 L745.184,502.1755 L765.044,502.1755 Z M680.84,551.0295 L694.345,551.0295 L680.84,551.0295 Z M758.689,551.0295 L745.184,551.0295 L758.689,551.0295 Z" id="Stroke-629"></path>
        </g>
    </g>
</svg>