<svg width="1241px" height="132px" viewBox="0 0 1241 132" version="1.1" xmlns="http://www.w3.org/2000/svg" xmlns:xlink="http://www.w3.org/1999/xlink">
    <g id="Page-1" stroke="none" stroke-width="1" fill="none" fill-rule="evenodd">
        <g id="Group" transform="translate(0.844900, -0.000400)">
            <path d="M708.9478,86.2931 C716.5678,82.6031 722.5838,77.6011 726.9918,71.2871 C731.3958,64.9761 733.6008,57.2351 733.6008,48.0631 L733.6008,47.7051 C733.6008,41.2741 732.6468,35.6771 730.7428,30.9131 C728.8368,26.1501 725.9778,21.8631 722.1678,18.0501 C717.7598,13.6451 711.9538,10.1611 704.7498,7.5991 C697.5418,5.0391 688.3418,3.7581 677.1488,3.7581 L616.0508,3.7581 L616.0508,26.6041 C613.4268,21.9641 609.9978,18.0401 605.7598,14.8341 C600.8738,11.1431 595.0098,8.3751 588.1628,6.5271 C581.3118,4.6821 573.7198,3.7581 565.3848,3.7581 L509.1108,3.7581 L509.1108,128.8111 C550.9528,128.8111 550.9138,106.3461 550.9138,106.3461 L550.9138,94.8681 L564.4918,94.8681 C572.9468,94.8681 580.6588,93.8861 587.6258,91.9211 C594.5928,89.9561 600.5788,87.0081 605.5808,83.0781 C609.9248,79.6641 613.4128,75.5561 616.0508,70.7501 L616.0508,128.8111 C657.7568,128.8111 657.8538,106.3421 657.8538,106.3421 L657.8538,93.0821 L666.4298,93.0821 L666.7868,93.0821 L690.3688,128.8111 L738.0678,128.8111 L708.9478,86.2931 Z M580.0338,51.2791 C580.0338,55.8061 578.3958,59.2281 575.1208,61.5511 C571.8438,63.8731 567.5288,65.0341 562.1698,65.0341 L550.9138,65.0341 L550.9138,37.1651 L562.3478,37.1651 C567.9448,37.1651 572.2908,38.3261 575.3898,40.6491 C578.4848,42.9711 580.0338,46.3961 580.0338,50.9211 L580.0338,51.2791 Z M691.9768,51.0991 C691.9768,54.9131 690.5468,57.8881 687.6888,60.0321 C684.8308,62.1761 680.8998,63.2481 675.8978,63.2481 L657.8538,63.2481 L657.8538,38.7731 L676.0768,38.7731 C680.9578,38.7731 684.8308,39.7551 687.6888,41.7211 C690.5468,43.6861 691.9768,46.6951 691.9768,50.7421 L691.9768,51.0991 Z" id="Fill-33" fill="#FFFFFE"></path>
            <path d="M880.7095,128.8117 L880.7095,3.7577 L919.8335,3.7577 L964.3175,58.9597 L964.3175,3.7577 L1005.7635,3.7577 L1005.7635,128.8117 L968.6045,128.8117 L922.1565,71.1077 L922.1565,106.3427 C922.1565,106.3427 922.1875,128.8117 880.7095,128.8117" id="Fill-35" fill="#FFFFFE"></path>
            <path d="M1005.7634,39.1305 L1038.9534,39.1305 L1038.9534,128.8115 C1080.6824,128.8115 1080.7574,106.3425 1080.7574,106.3425 L1080.7574,39.1305 L1117.5584,39.1305 L1117.5584,3.7575 L1005.7634,3.7575 L1005.7634,39.1305 Z" id="Fill-37" fill="#FFFFFE"></path>
            <path d="M846.4615,12.976 C835.2995,4.819 821.5425,0 806.6595,0 C769.3605,0 739.1245,30.237 739.1245,67.535 L741.1335,67.463 C741.1335,42.256 759.5585,22.868 784.7655,22.868 C797.1615,22.868 808.3955,27.817 816.6215,35.838 L846.4615,12.976 Z" id="Fill-39" fill="#FFFFFE"></path>
            <path d="M830.1031,63.309 C830.2971,65.017 830.4071,66.75 830.4071,68.51 L874.1941,67.535 C874.1941,51.989 868.9381,37.672 860.1101,26.258 L830.1031,63.309 Z" id="Fill-41" fill="#FFFFFE"></path>
            <path d="M807.0079,77.189 C803.7979,77.189 800.5879,75.974 798.1689,73.555 C793.4209,68.807 793.3189,60.983 797.9429,56.116 C798.0709,55.981 798.2099,55.857 798.3549,55.746 L860.0609,8.472 C861.4259,7.427 863.2849,7.562 864.4849,8.794 C865.6829,10.024 865.7679,11.887 864.6869,13.223 L815.9539,73.409 C815.8639,73.52 815.7609,73.633 815.6519,73.738 C813.2519,76.041 810.1289,77.189 807.0079,77.189 L807.0079,77.189 Z" id="Fill-43" fill="#71C3BD"></path>
            <path d="M1171.6654,131.4372 C1162.0254,131.4372 1153.0684,129.7692 1144.7974,126.4382 C1136.5234,123.1082 1129.3244,118.5252 1123.1954,112.6922 C1117.0644,106.8622 1112.2744,99.9892 1108.8244,92.0722 C1105.3704,84.1582 1103.6474,75.6782 1103.6474,66.6322 L1103.6474,66.2752 C1103.6474,57.2322 1105.4014,48.7522 1108.9134,40.8352 C1112.4224,32.9212 1117.2434,26.0172 1123.3744,20.1262 C1129.5024,14.2352 1136.7334,9.5932 1145.0654,6.2012 C1153.3944,2.8092 1162.3824,1.1132 1172.0224,1.1132 C1181.6634,1.1132 1190.6174,2.7812 1198.8904,6.1122 C1207.1614,9.4452 1214.3604,14.0282 1220.4924,19.8582 C1226.6204,25.6912 1231.4104,32.5642 1234.8634,40.4782 C1238.3144,48.3952 1240.0404,56.8742 1240.0404,65.9182 L1240.0404,66.2752 C1240.0404,75.3212 1238.2834,83.8012 1234.7744,91.7152 C1231.2624,99.6312 1226.4424,106.5322 1220.3134,112.4242 C1214.1824,118.3152 1206.9524,122.9572 1198.6224,126.3492 C1190.2904,129.7412 1181.3064,131.4372 1171.6654,131.4372 M1172.0224,94.4822 C1175.9504,94.4822 1179.5204,93.7092 1182.7344,92.1612 C1185.9474,90.6162 1188.6844,88.5632 1190.9464,86.0022 C1193.2054,83.4442 1194.9324,80.4982 1196.1234,77.1652 C1197.3114,73.8342 1197.9084,70.3222 1197.9084,66.6322 L1197.9084,66.2752 C1197.9084,62.5872 1197.2834,59.0452 1196.0344,55.6532 C1194.7844,52.2602 1193.0274,49.2572 1190.7674,46.6372 C1188.5054,44.0202 1185.7694,41.9372 1182.5554,40.3892 C1179.3424,38.8432 1175.7104,38.0682 1171.6654,38.0682 C1167.7374,38.0682 1164.1674,38.8432 1160.9534,40.3892 C1157.7404,41.9372 1155.0014,43.9902 1152.7414,46.5482 C1150.4794,49.1092 1148.7524,52.0542 1147.5644,55.3852 C1146.3734,58.7182 1145.7794,62.2302 1145.7794,65.9182 L1145.7794,66.2752 C1145.7794,69.9652 1146.4044,73.5052 1147.6534,76.8972 C1148.9034,80.2892 1150.6584,83.2962 1152.9204,85.9132 C1155.1794,88.5322 1157.9184,90.6162 1161.1324,92.1612 C1164.3454,93.7092 1167.9744,94.4822 1172.0224,94.4822" id="Fill-45" fill="#FFFFFE"></path>
            <polygon id="Fill-48-Copy" fill="#71C3BD" points="96.967 128.7614 8.929 17.6864 8.929 128.7614 4.54747351e-13 128.7614 4.54747351e-13 3.7584 8.75 3.7584 95.003 112.5114 95.003 3.7584 103.931 3.7584 103.931 128.7614"></polygon>
            <path d="M225.3622,99.3855 C222.8622,106.2325 219.3492,111.9755 214.8262,116.6185 C210.3002,121.2615 204.9152,124.7745 198.6652,127.1545 C192.4152,129.5345 185.4782,130.7255 177.8612,130.7255 C170.3612,130.7255 163.4852,129.5645 157.2352,127.2435 C150.9852,124.9215 145.5662,121.4705 140.9852,116.8865 C136.4002,112.3045 132.8592,106.6795 130.3592,100.0105 C127.8592,93.3445 126.6092,85.6075 126.6092,76.7955 L126.6092,3.7575 L135.8952,3.7575 L135.8952,75.9025 C135.8952,90.7855 139.6152,102.2425 147.0562,110.2785 C154.4952,118.3145 164.8832,122.3325 178.2182,122.3325 C184.5272,122.3325 190.2412,121.3815 195.3612,119.4755 C200.4782,117.5725 204.8542,114.7155 208.4862,110.9035 C212.1172,107.0955 214.9152,102.3325 216.8802,96.6175 C218.8442,90.9035 219.8262,84.2955 219.8262,76.7955 L219.8262,3.7575 L229.1122,3.7575 L229.1122,75.7245 C229.1122,84.6525 227.8622,92.5405 225.3622,99.3855" id="Fill-49-Copy" fill="#71C3BD"></path>
            <polygon id="Fill-51-Copy" fill="#71C3BD" points="295.7203 12.1509 295.7203 128.7609 286.4343 128.7609 286.4343 12.1509 242.8613 12.1509 242.8613 3.7579 339.2933 3.7579 339.2933 12.1509"></polygon>
            <path d="M445.0093,128.7614 L405.1863,76.9744 L364.2923,76.9744 L364.2923,128.7614 L355.0063,128.7614 L355.0063,3.7584 L407.5083,3.7584 C414.2943,3.7584 420.4243,4.6224 425.9013,6.3474 C431.3763,8.0744 436.0493,10.5154 439.9203,13.6684 C443.7873,16.8244 446.7953,20.5744 448.9383,24.9194 C451.0813,29.2664 452.1523,34.0574 452.1523,39.2944 L452.1523,39.6514 C452.1523,44.8914 451.2293,49.5624 449.3843,53.6704 C447.5373,57.7774 444.9783,61.3204 441.7053,64.2954 C438.4303,67.2724 434.5623,69.6834 430.0983,71.5274 C425.6343,73.3744 420.7813,74.6524 415.5443,75.3674 L456.7953,128.7614 L445.0093,128.7614 Z M442.8663,39.5594 C442.8663,31.0834 439.7413,24.3944 433.4913,19.4974 C427.2413,14.6004 418.4013,12.1514 406.9723,12.1514 L364.2923,12.1514 L364.2923,68.5814 L406.4373,68.5814 C411.6743,68.5814 416.5263,67.9254 420.9903,66.6114 C425.4553,65.2994 429.2943,63.4194 432.5093,60.9694 C435.7233,58.5194 438.2513,55.5334 440.0983,52.0094 C441.9433,48.4884 442.8663,44.4564 442.8663,39.9164 L442.8663,39.5594 Z" id="Fill-52-Copy" fill="#71C3BD"></path>
            <polygon id="Fill-54-Copy" fill="#71C3BD" points="472.8661 128.7614 482.1521 128.7614 482.1521 3.7584 472.8661 3.7584"></polygon>
        </g>
    </g>
</svg>