
<svg width="150px" height="155px" viewBox="0 0 150 155" version="1.1" xmlns="http://www.w3.org/2000/svg" xmlns:xlink="http://www.w3.org/1999/xlink">
    <g id="Page-12" stroke="none" stroke-width="1" fill="none" fill-rule="evenodd">
        <g id="nutripronto-mobile" transform="translate(-502.000000, -738.000000)" fill="#71C3BD">
            <g id="Group" transform="translate(502.000403, 738.842800)">
                <path d="M74.999497,57.6295 C88.414497,57.6295 99.328497,46.7155 99.328497,33.3005 C99.328497,19.8855 88.414497,8.9715 74.999497,8.9715 C61.584497,8.9715 50.670497,19.8855 50.670497,33.3005 C50.670497,46.7155 61.584497,57.6295 74.999497,57.6295 L74.999497,57.6295 Z M56.083497,30.8525 L55.312497,30.8525 C55.778497,27.0895 57.298497,23.6495 59.571497,20.8405 L60.037497,21.3055 C60.475497,21.7435 61.049497,21.9625 61.623497,21.9625 C62.197497,21.9625 62.771497,21.7445 63.209497,21.3055 C64.085497,20.4295 64.085497,19.0095 63.209497,18.1345 L62.768497,17.6925 C65.586497,15.4795 69.014497,14.0105 72.756497,13.5885 L72.756497,14.1795 C72.756497,15.4185 73.760497,16.4225 74.999497,16.4225 C76.238497,16.4225 77.242497,15.4185 77.242497,14.1795 L77.242497,13.5885 C80.984497,14.0115 84.412497,15.4795 87.230497,17.6925 L86.789497,18.1345 C85.913497,19.0095 85.913497,20.4305 86.789497,21.3055 C87.227497,21.7435 87.801497,21.9625 88.375497,21.9625 C88.949497,21.9625 89.523497,21.7445 89.961497,21.3055 L90.427497,20.8405 C92.700497,23.6495 94.220497,27.0895 94.686497,30.8525 L93.915497,30.8525 C92.677497,30.8525 91.673497,31.8575 91.673497,33.0955 C91.673497,34.3345 92.677497,35.3385 93.915497,35.3385 L94.738497,35.3385 C94.346497,39.1605 92.861497,42.6615 90.607497,45.5315 L89.961497,44.8855 C89.085497,44.0095 87.665497,44.0095 86.789497,44.8855 C85.913497,45.7615 85.913497,47.1815 86.789497,48.0575 L87.459497,48.7275 C84.599497,51.0425 81.085497,52.5785 77.242497,53.0125 L77.242497,52.0115 C77.242497,50.7735 76.238497,49.7695 74.999497,49.7695 C73.760497,49.7695 72.756497,50.7735 72.756497,52.0115 L72.756497,53.0125 C68.913497,52.5785 65.399497,51.0425 62.539497,48.7275 L63.209497,48.0575 C64.085497,47.1815 64.085497,45.7615 63.209497,44.8855 C62.333497,44.0095 60.913497,44.0095 60.037497,44.8855 L59.391497,45.5315 C57.137497,42.6615 55.652497,39.1605 55.260497,35.3385 L56.083497,35.3385 C57.321497,35.3385 58.325497,34.3345 58.325497,33.0955 C58.325497,31.8575 57.322497,30.8525 56.083497,30.8525 Z" id="Fill-550"></path>
                <path d="M131.447397,17.577 L102.888397,12.358 C101.418397,12.09 100.076397,11.359 99.006397,10.246 C92.660397,3.639 84.134397,0 74.999397,0 C65.864397,0 57.338397,3.639 50.991397,10.246 C49.922397,11.36 48.580397,12.09 47.110397,12.359 L18.551397,17.577 C7.11539699,19.667 -0.830603006,29.983 0.0693969937,41.575 L7.13139699,132.562 C7.57339699,138.257 10.126397,143.531 14.319397,147.411 C18.511397,151.291 23.967397,153.428 29.679397,153.428 L120.320397,153.428 C126.032397,153.428 131.487397,151.291 135.680397,147.411 C139.873397,143.531 142.426397,138.257 142.868397,132.562 L148.428397,60.926 C148.524397,59.691 147.600397,58.612 146.366397,58.516 C145.127397,58.421 144.051397,59.343 143.956397,60.579 L138.395397,132.215 C138.041397,136.78 135.995397,141.008 132.633397,144.118 C129.272397,147.228 124.899397,148.941 120.319397,148.941 L29.679397,148.941 C25.099397,148.941 20.726397,147.228 17.365397,144.118 C14.004397,141.008 11.957397,136.78 11.603397,132.215 L4.54139699,41.228 C3.82039699,31.935 10.190397,23.665 19.358397,21.99 L47.916397,16.771 C50.318397,16.333 52.500397,15.151 54.227397,13.354 C59.720397,7.635 67.097397,4.486 74.999397,4.486 C82.901397,4.486 90.278397,7.635 95.771397,13.354 C97.498397,15.151 99.680397,16.333 102.082397,16.771 L130.641397,21.99 C139.809397,23.665 146.179397,31.935 145.457397,41.228 L144.697397,51.02 C144.602397,52.254 145.525397,53.333 146.760397,53.43 C147.994397,53.523 149.074397,52.602 149.170397,51.367 L149.930397,41.575 C150.829397,29.983 142.884397,19.667 131.447397,17.577" id="Fill-552"></path>
                <path d="M16.076197,131.8674 C16.624197,138.9264 22.599197,144.4554 29.679197,144.4554 L120.319197,144.4554 C127.399197,144.4554 133.375197,138.9264 133.923197,131.8674 L140.985197,40.8804 C141.528197,33.8874 136.734197,27.6634 129.834197,26.4024 L115.131197,23.7164 C112.301197,23.1994 109.412197,23.9634 107.206197,25.8144 C105.032197,27.6384 103.796197,30.3014 103.813197,33.1204 C103.816197,33.6084 103.807197,34.1044 103.785197,34.5944 C103.458197,42.0384 100.276197,48.9914 94.825197,54.1724 C93.928197,55.0254 93.892197,56.4454 94.745197,57.3434 C95.598197,58.2414 97.018197,58.2774 97.916197,57.4244 C104.213197,51.4394 107.889197,43.4014 108.267197,34.7914 C108.292197,34.2264 108.303197,33.6554 108.299197,33.0934 C108.290197,31.6134 108.943197,30.2134 110.090197,29.2514 C111.269197,28.2614 112.812197,27.8524 114.325197,28.1294 L129.028197,30.8154 C133.659197,31.6624 136.877197,35.8394 136.513197,40.5334 L129.450197,131.5204 C129.083197,136.2584 125.072197,139.9694 120.320197,139.9694 L29.679197,139.9694 C24.927197,139.9694 20.916197,136.2584 20.548197,131.5204 L19.679197,120.3234 C19.583197,119.0874 18.505197,118.1654 17.270197,118.2604 C16.035197,118.3564 15.111197,119.4354 15.207197,120.6704 L16.076197,131.8674 Z" id="Fill-554"></path>
                <path d="M42.732997,25.7706 C40.555997,23.9496 37.703997,23.1976 34.908997,23.7086 L20.163997,26.4026 C13.264997,27.6636 8.47099699,33.8876 9.01299699,40.8806 L14.464997,111.1106 C14.555997,112.2866 15.538997,113.1806 16.698997,113.1806 C16.756997,113.1806 16.815997,113.1786 16.874997,113.1736 C18.109997,113.0776 19.032997,111.9986 18.936997,110.7636 L13.485997,40.5336 C13.121997,35.8396 16.338997,31.6616 20.970997,30.8156 L35.715997,28.1216 C37.194997,27.8506 38.703997,28.2486 39.854997,29.2116 C41.031997,30.1956 41.703997,31.6486 41.698997,33.1946 L41.698997,33.3006 C41.698997,42.4266 45.330997,50.9456 51.924997,57.2906 C58.513997,63.6306 67.173997,66.9256 76.306997,66.5766 C80.903997,66.3996 85.333997,65.2886 89.475997,63.2766 C90.589997,62.7356 91.054997,61.3936 90.512997,60.2796 C89.971997,59.1656 88.629997,58.7006 87.515997,59.2416 C83.935997,60.9806 80.106997,61.9406 76.133997,62.0936 C68.230997,62.4026 60.736997,59.5446 55.034997,54.0576 C49.327997,48.5666 46.184997,41.1946 46.184997,33.3006 L46.184997,33.2116 C46.193997,30.3246 44.935997,27.6126 42.732997,25.7706" id="Fill-556"></path>
                <path d="M74.999497,42.8891 C79.038497,42.8891 82.324497,39.6031 82.324497,35.5641 C82.324497,34.8401 82.324497,32.9161 78.529497,25.4661 C77.850497,24.1321 76.497497,23.3021 74.999497,23.3021 C73.502497,23.3021 72.149497,24.1311 71.469497,25.4661 C67.674497,32.9161 67.674497,34.8401 67.674497,35.5641 C67.674497,39.6031 70.960497,42.8891 74.999497,42.8891 M74.999497,28.4301 C77.226497,32.9131 77.838497,35.0161 77.838497,35.5641 C77.838497,37.1291 76.565497,38.4031 74.999497,38.4031 C73.433497,38.4031 72.160497,37.1291 72.160497,35.5641 C72.160497,35.0161 72.772497,32.9131 74.999497,28.4301" id="Fill-558"></path>
            </g>
        </g>
    </g>
</svg>